<svg id="Layer_1" xmlns="http://www.w3.org/2000/svg" viewBox="0 0 106.33 22"><defs><style>.cls-1,.cls-2,.cls-3,.cls-4{stroke-width:0px;}.cls-1,.cls-4{fill:#000;}.cls-5{opacity:.5;}.cls-6{fill:none;stroke:#000;stroke-miterlimit:10;}.cls-6,.cls-4{opacity:.2;}.cls-2{fill:#fff;}.cls-3{fill:#22c55e;}</style></defs><path class="cls-1" d="M2.44,3.06v18.94h103.89V3.06H2.44ZM105.1,20.69H3.67V4.36h101.43v16.33Z"/><rect class="cls-1" x="3.67" y="4.36" width="101.43" height="16.33"/><g class="cls-5"><path class="cls-1" d="M1.83,17.11V1.83h100.83v15.28H1.83M104.5,0H0v18.94h104.5V0"/></g><rect class="cls-2" x="1.22" y="1.22" width="102.06" height="16.5"/><path class="cls-1" d="M103.89,18.33H.61V.61h103.28v17.72ZM1.83,17.11h100.83V1.83H1.83v15.28Z"/><line class="cls-6" x1="8.56" y1="3.36" x2="95.94" y2="3.36"/><line class="cls-6" x1="8.56" y1="15.58" x2="95.94" y2="15.58"/><rect class="cls-4" x="98.39" y="3.67" width="2.44" height="2.44"/><rect class="cls-4" x="98.39" y="12.83" width="2.44" height="2.44"/><rect class="cls-4" x="3.67" y="3.67" width="2.44" height="2.44"/><rect class="cls-4" x="3.67" y="12.83" width="2.44" height="2.44"/><path class="cls-3" d="M22.03,12.74v-.93h-.93v-.93h-.93v-2.8h.93v-.93h.93v-.93h3.73v.93h.93v.93h-1.87v-.93h-1.87v.93h-.93v2.8h.93v.93h1.87v-.93h1.87v.93h-.93v.93h-3.73Z"/><path class="cls-3" d="M28.57,12.74v-.93h-.93v-.93h.93v-.93h3.73v-.93h-3.73v-.93h4.67v.93h.93v3.73h-5.6ZM29.5,11.8h2.8v-.93h-2.8v.93Z"/><path class="cls-3" d="M36.03,12.74v-.93h1.87v-4.67h-.93v-.93h2.8v5.6h1.87v.93h-5.6Z"/><path class="cls-3" d="M43.5,12.74v-.93h-.93v-2.8h.93v-.93h5.6v.93h-4.67v2.8h4.67v.93h-5.6Z"/><path class="cls-3" d="M50.96,12.74v-.93h-.93v-3.73h1.87v3.73h2.8v-3.73h1.87v4.67h-5.6Z"/><path class="cls-3" d="M58.43,12.74v-.93h1.87v-4.67h-.93v-.93h2.8v5.6h1.87v.93h-5.6Z"/><path class="cls-3" d="M65.89,12.74v-.93h-.93v-.93h.93v-.93h3.73v-.93h-3.73v-.93h4.67v.93h.93v3.73h-5.6ZM66.82,11.8h2.8v-.93h-2.8v.93Z"/><path class="cls-3" d="M75.22,12.74v-3.73h-1.87v-.93h1.87v-1.87h1.87v1.87h1.87v.93h-1.87v3.73h-1.87Z"/><path class="cls-3" d="M80.82,12.74v-.93h-.93v-2.8h.93v-.93h4.67v.93h.93v1.87h-4.67v.93h3.73v.93h-4.67ZM81.75,9.94h2.8v-.93h-2.8v.93Z"/></svg>