<?xml version="1.0" encoding="UTF-8"?><svg id="Layer_1" xmlns="http://www.w3.org/2000/svg" xmlns:xlink="http://www.w3.org/1999/xlink" viewBox="0 0 570.22 546"><defs><style>.cls-1{fill:url(#linear-gradient);}.cls-1,.cls-2,.cls-3,.cls-4,.cls-5,.cls-6,.cls-7,.cls-8{stroke-width:0px;}.cls-2{opacity:.19;}.cls-2,.cls-4{fill:#000;}.cls-3{fill:#47c8fe;}.cls-4{opacity:0;}.cls-5{fill:url(#linear-gradient-2);}.cls-6{fill:#404040;}.cls-7{fill:url(#linear-gradient-3);}.cls-8{fill:#353535;}</style><linearGradient id="linear-gradient" x1="285.11" y1="511.8" x2="285.11" y2="34.2" gradientUnits="userSpaceOnUse"><stop offset="0" stop-color="#595559"/><stop offset=".5" stop-color="#424244"/><stop offset="1" stop-color="#595559"/></linearGradient><linearGradient id="linear-gradient-2" x1="285.11" y1="493.32" x2="285.11" y2="52.68" gradientUnits="userSpaceOnUse"><stop offset="0" stop-color="#5e5e5e"/><stop offset="1" stop-color="#333"/></linearGradient><linearGradient id="linear-gradient-3" x1="285.11" y1="488" x2="285.11" y2="127" gradientUnits="userSpaceOnUse"><stop offset="0" stop-color="#ca5160" stop-opacity=".6"/><stop offset=".21" stop-color="rgba(143,96,148,.46)" stop-opacity=".46"/><stop offset=".43" stop-color="rgba(92,110,194,.34)" stop-opacity=".34"/><stop offset=".64" stop-color="rgba(55,120,227,.25)" stop-opacity=".25"/><stop offset=".84" stop-color="rgba(32,126,248,.2)" stop-opacity=".2"/><stop offset="1" stop-color="#1981ff" stop-opacity=".18"/></linearGradient></defs><path class="cls-2" d="M558.87,495.98c-.65,11.66-5.8,46.34-5.8,46.34-.26,2.1-2.05,3.68-4.17,3.68H17.61s-8-45.74-8-60c0-5,.78-8.47,1.28-7.52,5.32,10.15,15.69,17.99,26.99,19.3,165.83,18.69,328.63,18.69,494.46,0,9.02-1.04,20.53-14.58,26.27-21.78,0,0,.54,14.99.26,19.98Z"/><path class="cls-1" d="M532.34,497.78c-165.83,18.69-328.63,18.69-494.46,0-15.61-1.8-29.45-16.08-30.65-31.66C-2.41,337.72-2.41,208.27,7.23,79.89c1.2-15.58,15.04-29.86,30.65-31.66,165.83-18.69,328.63-18.69,494.46,0,15.61,1.81,29.45,16.08,30.65,31.66,9.64,128.39,9.64,257.84,0,386.23-1.2,15.58-15.04,29.86-30.65,31.66Z"/><path class="cls-5" d="M513.22,480.39c-153,17.25-303.21,17.25-456.21,0-14.4-1.67-27.17-14.84-28.28-29.21-8.89-118.46-8.89-237.89,0-356.35,1.11-14.38,13.88-27.55,28.28-29.21,153-17.25,303.21-17.25,456.21,0,14.41,1.67,27.17,14.84,28.28,29.21,8.89,118.46,8.89,237.89,0,356.35-1.11,14.38-13.87,27.55-28.28,29.21Z"/><path class="cls-8" d="M537.46,184.29c-2.98-25.83-7.26-51.71-12.87-77.67-2.92-13.44-16.61-27.3-30.1-30.04-23.44-4.75-46.18-8.71-68.41-11.92,29.65,4.53,54.19,12.09,69.9,25.11,24.72,16.76,36.06,51.97,41.48,94.51Z"/><path class="cls-6" d="M74.18,456.01c14.57,12.06,36.56,19.14,63.15,23.4l-.11.68c-20.69-3.26-41.52-7.22-62.55-11.86-13.44-2.97-27.36-16.55-30.1-30.03-6-29.68-10.36-58.85-13.14-87.77,4.84,47.46,15.91,87.38,42.75,105.58Z"/><path class="cls-6" d="M536.5,368.53c-2.92,23.18-6.88,46.39-11.9,69.67-2.92,13.44-16.66,27.06-30.1,30.03-20.82,4.59-41.44,8.51-61.91,11.76l-.09-.58c26.78-4.26,48.92-11.34,63.49-23.4,23.34-15.83,34.74-48.1,40.51-87.48Z"/><path class="cls-8" d="M74.17,89.78c14.13-11.7,35.25-19,60.77-23.64-19.72,2.96-39.75,6.43-60.27,10.45-13.5,2.64-27.46,16.54-30.1,30.04-5.13,26.25-9.1,52.16-11.91,77.89,5.41-42.65,16.74-77.95,41.51-94.74Z"/><path class="cls-3" d="M496.02,90.87c40.68,27.58,45.12,105.11,46.59,183.12-1.48,78-5.91,155.53-46.59,183.12-37.29,30.89-124.25,29.11-211.4,30.9-87.15-1.79-173.12-.02-210.41-30.9-40.68-27.58-45.12-105.11-46.59-183.12,1.48-78,5.92-155.54,46.59-183.12,37.29-30.89,123.26-31.07,210.41-32.87,87.15,1.79,174.12,1.98,211.4,32.87Z"/><path class="cls-7" d="M74.2,457.1c37.29,30.89,123.26,29.11,210.41,30.9,87.15-1.79,174.12-.01,211.4-30.9,40.68-27.58,45.12-105.11,46.59-183.12-.37-19.7-.94-39.37-2.22-58.21-1.7-1.67-3.42-3.32-5.17-4.94-31.88-29.84-71.83-52.17-114.82-65.24-43.07-13.4-89.17-17.55-135.29-18.59-46.12,1.04-92.22,5.19-135.29,18.58-42.98,13.07-82.93,35.39-114.81,65.23-1.75,1.63-3.48,3.28-5.18,4.96-1.29,18.84-1.85,38.51-2.22,58.21,1.48,78,5.91,155.54,46.59,183.12Z"/><rect class="cls-4" x="288.11" width="4" height="4"/></svg>