<svg viewBox="0 0 416.34 512"><path d="M118.04,341.41c-1-2.44-3.79-3.6-6.23-2.61-32.53,13.33-66.91,20.5-102.27,21.36V68c0-2.64-2.14-4.77-4.77-4.77s-4.77,2.14-4.77,4.77v439c0,2.64,2.14,4.77,4.77,4.77s4.77-2.14,4.77-4.77v-137.29c36.61-.86,72.21-8.27,105.89-22.07,2.44-1,3.61-3.79,2.61-6.22Z"/><path d="M180.13,135.65c2.64,0,4.77-2.14,4.77-4.77v-24.28c0-2.64-2.14-4.77-4.77-4.77s-4.77,2.14-4.77,4.77v24.28c0,2.64,2.14,4.77,4.77,4.77Z"/><path d="M180.13,393.18c-2.64,0-4.77,2.14-4.77,4.77v24.28c0,2.64,2.14,4.77,4.77,4.77s4.77-2.14,4.77-4.77v-24.28c0-2.64-2.14-4.77-4.77-4.77Z"/><path d="M180.13,344.62c-2.64,0-4.77,2.14-4.77,4.77v24.28c0,2.64,2.14,4.77,4.77,4.77s4.77-2.14,4.77-4.77v-24.28c0-2.64-2.14-4.77-4.77-4.77Z"/><path d="M180.13,441.74c-2.64,0-4.77,2.14-4.77,4.77v24.28c0,2.64,2.14,4.77,4.77,4.77s4.77-2.14,4.77-4.77v-24.28c0-2.64-2.14-4.77-4.77-4.77Z"/><path d="M180.13,232.76c2.64,0,4.77-2.14,4.77-4.77v-24.28c0-2.64-2.14-4.77-4.77-4.77s-4.77,2.14-4.77,4.77v24.28c0,2.64,2.14,4.77,4.77,4.77Z"/><path d="M180.13,296.06c-2.64,0-4.77,2.14-4.77,4.77v24.28c0,2.64,2.14,4.77,4.77,4.77s4.77-2.14,4.77-4.77v-24.28c0-2.64-2.14-4.77-4.77-4.77Z"/><path d="M180.13,184.2c2.64,0,4.77-2.14,4.77-4.77v-24.28c0-2.64-2.14-4.77-4.77-4.77s-4.77,2.14-4.77,4.77v24.28c0,2.64,2.14,4.77,4.77,4.77Z"/><path d="M180.13,490.3c-2.64,0-4.77,1.9-4.77,4.24v10.6c0,2.34,2.14,4.24,4.77,4.24s4.77-1.9,4.77-4.24v-10.6c0-2.34-2.14-4.24-4.77-4.24Z"/><path d="M283.69,70.38c0-2.64-2.14-4.77-4.77-4.77h-21.71c-2.64,0-4.77,2.14-4.77,4.77s2.14,4.77,4.77,4.77h21.71c2.64,0,4.77-2.14,4.77-4.77Z"/><path d="M300.63,75.16h21.71c2.64,0,4.77-2.14,4.77-4.77s-2.14-4.77-4.77-4.77h-21.71c-2.64,0-4.77,2.14-4.77,4.77s2.14,4.77,4.77,4.77Z"/><path d="M235.49,75.16c2.64,0,4.77-2.14,4.77-4.77s-2.14-4.77-4.77-4.77h-21.71c-2.64,0-4.77,2.14-4.77,4.77s2.14,4.77,4.77,4.77h21.71Z"/><path d="M192.06,65.61h-11.93c-2.64,0-4.77,2.14-4.77,4.77v11.93c0,2.64,2.14,4.77,4.77,4.77s4.77-2.14,4.77-4.77v-7.16h7.16c2.64,0,4.77-2.14,4.77-4.77s-2.14-4.77-4.77-4.77Z"/><path d="M411.57,65.61h-67.3c-2.49,0-4.72,1.82-4.95,4.3-.27,2.85,1.96,5.24,4.75,5.24h62.74v186.1h-138.88c-2.49,0-4.72,1.82-4.95,4.3-.27,2.85,1.96,5.24,4.75,5.24h139.09v236.43c0,2.64,2.14,4.77,4.77,4.77h0c2.64,0,4.77-2.14,4.77-4.77V70.38c0-2.64-2.14-4.77-4.77-4.77Z"/><path d="M192.06,261.26h-7.16v-8.98c0-2.64-2.14-4.77-4.77-4.77s-4.77,2.14-4.77,4.77v24.28c0,2.64,2.14,4.77,4.77,4.77s4.77-2.14,4.77-4.77v-5.75h7.16c2.64,0,4.77-2.14,4.77-4.77s-2.14-4.77-4.77-4.77Z"/><path d="M242.49,261.26h-25.21c-2.64,0-4.77,2.14-4.77,4.77s2.14,4.77,4.77,4.77h25.21c2.64,0,4.77-2.14,4.77-4.77s-2.14-4.77-4.77-4.77Z"/><path d="M357.08,70.38c3.16,0,5.3,3.2,4.11,6.12l-55.97,136.61s-.01.02-.01.04l-38.66,94.34-82.38,201.05-.32.77-.07.05c-.7,1.17-1.87,2.04-3.28,2.31-.32.07-.63.1-.95.1h-.01c-.22,0-.44-.02-.66-.05-.07-.01-.15-.02-.21-.04-.16-.04-.31-.06-.44-.11-.09-.01-.16-.04-.23-.07-.15-.04-.27-.1-.41-.15-.07-.04-.15-.06-.22-.1-.14-.07-.27-.15-.39-.23-.06-.04-.12-.06-.18-.11-.17-.11-.34-.25-.5-.39-.01-.01-.02-.01-.04-.02-.16-.15-.31-.31-.44-.47-.05-.06-.1-.12-.15-.18-.06-.09-.12-.16-.18-.25-.02-.04-.05-.09-.07-.12-.04-.07-.09-.14-.12-.21-.07-.14-.15-.28-.21-.42-.02-.05-.05-.09-.06-.12l-82.54-201.46s-.01-.02-.01-.02L1.63,79.46c-1.28-3.21,1.08-6.69,4.53-6.69h0c2.07,0,3.92,1.26,4.69,3.18l90.69,227.59s.01.02.01.04l73.08,178.35,4.01,10.17c.29.74,1.34.75,1.64.01l77.17-188.32s.01-.01.01-.02l38.68-94.38s.01-.02.01-.02l55.87-136.34c.65-1.59,2.2-2.63,3.92-2.63h1.15Z"/><path d="M139.19,234.11c.18,0,.35,0,.53-.03,8.68-.96,17.73-1.61,26.9-1.93,2.63-.09,4.69-2.3,4.6-4.93-.09-2.63-2.3-4.67-4.93-4.6-9.42.33-18.71.99-27.62,1.98-2.62.29-4.51,2.65-4.22,5.27.27,2.44,2.34,4.25,4.74,4.25Z"/><path d="M193.63,232.14c9.17.32,18.23.97,26.9,1.93.18.02.36.03.53.03,2.4,0,4.47-1.81,4.74-4.25.29-2.62-1.6-4.98-4.22-5.27-8.92-.99-18.21-1.66-27.62-1.98-2.67-.07-4.84,1.97-4.93,4.6-.09,2.63,1.97,4.84,4.6,4.93Z"/><path d="M247.09,238.24c9.6,2,18.21,4.42,25.61,7.18.55.21,1.11.3,1.67.3,1.94,0,3.75-1.18,4.47-3.1.92-2.47-.33-5.22-2.8-6.14-7.84-2.93-16.93-5.48-27-7.58-2.59-.54-5.11,1.12-5.65,3.7-.54,2.58,1.12,5.11,3.7,5.65Z"/><path d="M85.9,245.72c.55,0,1.12-.1,1.67-.3,7.39-2.76,16.01-5.18,25.6-7.18,2.58-.54,4.23-3.07,3.7-5.65-.54-2.58-3.06-4.23-5.65-3.7-10.07,2.1-19.15,4.65-26.99,7.58-2.47.92-3.72,3.67-2.8,6.14.72,1.92,2.54,3.1,4.47,3.1Z"/><path d="M301.3,251.14c-1.85-1.88-4.88-1.91-6.75-.06-1.88,1.85-1.91,4.87-.06,6.75,2.76,2.79,4.15,5.55,4.15,8.2,0,7.89-12.25,16.46-32.77,22.94-22.83,7.19-53.28,11.17-85.74,11.17s-62.9-3.97-85.74-11.17c-20.52-6.48-32.77-15.05-32.77-22.94,0-2.65,1.4-5.4,4.15-8.2,1.85-1.88,1.83-4.9-.06-6.75-1.87-1.85-4.9-1.83-6.75.06-4.57,4.64-6.88,9.65-6.88,14.89,0,28.34,65.97,43.65,128.05,43.65s128.05-15.31,128.05-43.65c0-5.24-2.31-10.25-6.88-14.89Z"/><path d="M307.78,18.8C273.93,6.68,229.02,0,181.33,0S88.73,6.68,54.87,18.8C19.49,31.47,0,48.94,0,68s19.49,36.53,54.87,49.2c33.85,12.12,78.76,18.8,126.45,18.8s92.6-6.68,126.45-18.8c35.39-12.67,54.88-30.15,54.88-49.2s-19.49-36.53-54.88-49.2ZM9.54,68c0-28.23,69.03-58.45,171.78-58.45,48.62,0,89.69,6.77,119.46,16.89L48.05,104.29c-24.6-10.56-38.51-23.62-38.51-36.29ZM181.33,126.45c-48.24,0-89.04-6.66-118.76-16.65L315.15,32l-.02-.06c24.27,10.52,37.98,23.49,37.98,36.06,0,28.23-69.03,58.45-171.78,58.45Z"/></svg>