<svg viewBox="0 0 511 511"><path d="M511,255.5c0-4.49-.12-9.02-.36-13.46,0,0,0,0,0,0-3.28-63.15-29.8-122.6-74.66-167.37C391.11,29.87,331.61,3.47,268.43.32c0,0,0,0,0,0-8.74-.44-17.72-.43-26.4.03,0,0,0,0,0,0-63.15,3.28-122.6,29.8-167.37,74.66C29.87,119.89,3.47,179.39.32,242.56c0,0,0,0,0,0-.21,4.27-.32,8.63-.32,12.93s.12,9.03.36,13.47c0,0,0,0,0,0,3.28,63.16,29.8,122.6,74.66,167.37,44.87,44.78,104.37,71.18,167.55,74.33,0,0,0,0,0,0,4.26.21,8.62.32,12.94.32s9.02-.12,13.46-.36c0,0,0,0,0,0,63.16-3.28,122.6-29.8,167.37-74.66,44.78-44.87,71.18-104.37,74.33-167.55,0,0,0,0,0,0,.21-4.26.32-8.62.32-12.94ZM501.9,238.01h-38.61c-2.34,0-4.24,1.9-4.24,4.24v9.01h-56.19v-9.01c0-2.34-1.9-4.24-4.24-4.24s-4.24,1.9-4.24,4.24v9.01h-59.37v-9.01c0-2.34-1.9-4.24-4.24-4.24s-4.24,1.9-4.24,4.24v9.01h-66.79v-66.79h8.48c2.34,0,4.24-1.9,4.24-4.24s-1.9-4.24-4.24-4.24h-8.48v-59.37h8.48c2.34,0,4.24-1.9,4.24-4.24s-1.9-4.24-4.24-4.24h-8.48v-56.19h8.48c2.34,0,4.24-1.9,4.24-4.24V9.05c123.32,8.32,220.86,105.65,229.44,228.95ZM238.01,9.1v38.61c0,2.34,1.9,4.24,4.24,4.24h9.01v56.19h-9.01c-2.34,0-4.24,1.9-4.24,4.24s1.9,4.24,4.24,4.24h9.01v59.37h-9.01c-2.34,0-4.24,1.9-4.24,4.24s1.9,4.24,4.24,4.24h9.01v66.79h-66.79v-8.48c0-2.34-1.9-4.24-4.24-4.24s-4.24,1.9-4.24,4.24v8.48h-59.37v-8.48c0-2.34-1.9-4.24-4.24-4.24s-4.24,1.9-4.24,4.24v8.48h-56.19v-8.48c0-2.34-1.9-4.24-4.24-4.24H9.05C17.38,115.22,114.71,17.68,238.01,9.1ZM9.1,272.99h38.61c2.34,0,4.24-1.9,4.24-4.24v-9.01h56.19v9.01c0,2.34,1.9,4.24,4.24,4.24s4.24-1.9,4.24-4.24v-9.01h59.37v9.01c0,2.34,1.9,4.24,4.24,4.24s4.24-1.9,4.24-4.24v-9.01h66.79v66.79h-8.48c-2.34,0-4.24,1.9-4.24,4.24s1.9,4.24,4.24,4.24h8.48v59.37h-8.48c-2.34,0-4.24,1.9-4.24,4.24s1.9,4.24,4.24,4.24h8.48v56.19h-8.48c-2.34,0-4.24,1.9-4.24,4.24v38.65c-123.32-8.32-220.86-105.65-229.44-228.95ZM272.99,501.9v-38.61c0-2.34-1.9-4.24-4.24-4.24h-9.01v-56.19h9.01c2.34,0,4.24-1.9,4.24-4.24s-1.9-4.24-4.24-4.24h-9.01v-59.37h9.01c2.34,0,4.24-1.9,4.24-4.24s-1.9-4.24-4.24-4.24h-9.01v-66.79h66.79v8.48c0,2.34,1.9,4.24,4.24,4.24s4.24-1.9,4.24-4.24v-8.48h59.37v8.48c0,2.34,1.9,4.24,4.24,4.24s4.24-1.9,4.24-4.24v-8.48h56.19v8.48c0,2.34,1.9,4.24,4.24,4.24h38.65c-8.32,123.32-105.65,220.86-228.95,229.44Z"/></svg>