<svg viewBox="0 0 461.92 232.28"><path d="M59.84,162.91l-53.67-31.04v-14.61l53.67-31.04v17.72l-35.57,20.56,35.57,20.56v17.85Z"/><path d="M82.02,160.39c-2.63-1.59-4.74-3.71-6.34-6.34-1.6-2.63-2.39-5.5-2.39-8.6v-40.35c0-3.1.8-5.97,2.39-8.6,1.59-2.63,3.71-4.74,6.34-6.34,2.63-1.59,5.5-2.39,8.6-2.39h41.51c3.19,0,6.1.78,8.73,2.33,2.63,1.55,4.72,3.64,6.27,6.27,1.55,2.63,2.33,5.54,2.33,8.73v27.94h-60.78v11.9c0,.69.24,1.27.71,1.75.47.47,1.05.71,1.75.71h58.33v15.39h-58.84c-3.1,0-5.97-.8-8.6-2.39ZM88.68,118.94h45.39v-13.32c0-.69-.24-1.27-.71-1.75-.47-.47-1.06-.71-1.75-.71h-40.48c-.69,0-1.27.24-1.75.71-.48.47-.71,1.06-.71,1.75v13.32Z"/><path d="M163.17,162.78v-75.01h58.97c3.1,0,5.97.8,8.6,2.39,2.63,1.6,4.72,3.71,6.27,6.34,1.55,2.63,2.33,5.5,2.33,8.6v57.68h-15.39v-57.16c0-.69-.24-1.27-.71-1.75-.48-.47-1.01-.71-1.62-.71h-40.61c-.69,0-1.27.24-1.75.71-.48.47-.71,1.06-.71,1.75v57.16h-15.39Z"/><path d="M258.55,160.39c-2.63-1.59-4.74-3.71-6.34-6.34-1.6-2.63-2.39-5.5-2.39-8.6v-40.35c0-3.1.8-5.97,2.39-8.6,1.59-2.63,3.71-4.74,6.34-6.34,2.63-1.59,5.5-2.39,8.6-2.39h58.71v15.39h-58.2c-.69,0-1.27.24-1.75.71-.47.47-.71,1.06-.71,1.75v39.32c0,.69.24,1.27.71,1.75.47.47,1.05.71,1.75.71h58.33v15.39h-58.84c-3.1,0-5.97-.8-8.6-2.39Z"/><path d="M333.88,162.78v-17.07l61.95-75.53,4.14-.52v16.81l-61.82,75.66-4.27.65Z"/><path d="M408.12,163.17v-17.85l35.44-20.56-35.44-20.43v-17.85l53.8,30.91v14.74l-53.8,31.04Z"/><path d="M297.33,44.04c-1.19-.72-2.14-1.68-2.84-2.87-.7-1.19-1.06-2.49-1.06-3.9V11.13h6.97v25.9c0,.31.11.58.32.79s.48.32.79.32h18.34c.31,0,.58-.11.79-.32s.32-.48.32-.79V11.13h6.97v26.14c0,1.41-.35,2.71-1.05,3.9-.7,1.19-1.65,2.15-2.84,2.87-1.19.72-2.51,1.08-3.96,1.08h-18.81c-1.45,0-2.76-.36-3.96-1.08Z"/><path d="M336.89,44.04c-1.19-.72-2.14-1.68-2.84-2.87-.7-1.19-1.06-2.49-1.06-3.9V.53h6.97v10.61h13.6v6.97h-13.6v18.93c0,.31.11.58.32.79s.48.32.79.32h12.48v6.97h-12.72c-1.45,0-2.76-.36-3.96-1.08Z"/><path d="M358.3,45.12V7.85c0-1.44.35-2.76,1.05-3.96.7-1.19,1.65-2.14,2.84-2.84s2.51-1.05,3.96-1.05h12.71v7.03h-12.48c-.31,0-.58.11-.79.32-.22.22-.32.46-.32.73v3.05h13.6v6.97h-13.6v27.02h-6.97Z"/><path d="M383.5,31.29v-6.97h23.67v6.97h-23.67Z"/><path d="M417.58,44.04c-1.19-.72-2.14-1.68-2.84-2.87-.7-1.19-1.05-2.49-1.05-3.9v-9.38c0-.7.13-1.43.38-2.17s.58-1.46.97-2.17c-.39-.66-.71-1.38-.97-2.14s-.38-1.51-.38-2.26v-8.38c0-1.45.35-2.76,1.05-3.96.7-1.19,1.65-2.14,2.84-2.84s2.51-1.05,3.96-1.05h26.25c1.25,0,2.42.29,3.52.88,1.09.59,2.03,1.37,2.81,2.34.78.98,1.29,2.05,1.52,3.22v9.79c0,1.49-.45,2.95-1.35,4.4.9,1.33,1.35,2.77,1.35,4.34v9.38c0,1.41-.35,2.71-1.05,3.9-.7,1.19-1.65,2.15-2.84,2.87-1.19.72-2.51,1.08-3.96,1.08h-26.25c-1.45,0-2.77-.36-3.96-1.08ZM421.77,20.69h25.84c.27,0,.52-.11.73-.32.21-.21.32-.48.32-.79v-8.5c0-.31-.11-.58-.32-.79-.22-.21-.46-.32-.73-.32h-25.84c-.31,0-.58.11-.79.32-.22.21-.32.48-.32.79v8.5c0,.31.11.58.32.79.21.21.48.32.79.32ZM421.77,38.15h25.84c.27,0,.52-.11.73-.32.21-.21.32-.48.32-.79v-8.85c0-.31-.11-.58-.32-.79-.22-.21-.46-.32-.73-.32h-25.84c-.31,0-.58.11-.79.32-.22.22-.32.48-.32.79v8.85c0,.31.11.58.32.79.21.21.48.32.79.32Z"/><path d="M9.61,232.28L0,207.82h5.35l6.28,15.31,6.66-15.31h5.44l7.08,15.39,5.82-15.39h5.4l-9.23,24.46h-3.96l-7.8-17.25-7.42,17.25h-4.01Z"/><path d="M45.03,204.87v-5.06h5.02v5.06h-5.02ZM45.03,232.28v-24.46h5.02v24.46h-5.02Z"/><path d="M54.94,232.28v-24.46h19.23c1.01,0,1.95.26,2.8.78.86.52,1.54,1.21,2.04,2.07s.76,1.79.76,2.8v18.8h-5.02v-18.64c0-.22-.08-.41-.23-.57-.15-.15-.33-.23-.53-.23h-13.24c-.23,0-.42.08-.57.23-.15.15-.23.34-.23.57v18.64h-5.02Z"/><path d="M85.78,231.52c-.86-.51-1.54-1.19-2.04-2.04-.51-.86-.76-1.81-.76-2.85v-13.16c0-1.01.25-1.95.76-2.8.51-.86,1.19-1.55,2.04-2.07.86-.52,1.81-.78,2.85-.78h14.21v-8.01h5.02v32.47h-19.23c-1.04,0-1.99-.25-2.85-.76ZM88.84,227.26h13.2c.22,0,.41-.08.57-.23.15-.15.23-.34.23-.57v-12.82c0-.22-.08-.41-.23-.57-.15-.15-.34-.23-.57-.23h-13.2c-.23,0-.42.08-.57.23-.15.15-.23.34-.23.57v12.82c0,.23.08.42.23.57.15.15.34.23.57.23Z"/><path d="M114.16,231.5c-.86-.52-1.55-1.21-2.07-2.07-.52-.86-.78-1.79-.78-2.8v-13.16c0-1.01.26-1.95.78-2.8.52-.86,1.21-1.55,2.07-2.07.86-.52,1.79-.78,2.8-.78h13.53c1.04,0,1.99.25,2.85.76.86.51,1.54,1.19,2.04,2.04.51.86.76,1.81.76,2.85v13.16c0,1.01-.25,1.95-.76,2.8s-1.19,1.55-2.04,2.07c-.86.52-1.81.78-2.85.78h-13.53c-1.01,0-1.95-.26-2.8-.78ZM117.13,227.26h13.2c.22,0,.41-.08.57-.23.15-.15.23-.34.23-.57v-12.82c0-.22-.08-.41-.23-.57-.15-.15-.34-.23-.57-.23h-13.2c-.23,0-.42.08-.57.23-.16.15-.23.34-.23.57v12.82c0,.23.08.42.23.57.15.15.34.23.57.23Z"/><path d="M147.15,232.28l-9.61-24.46h5.35l6.28,15.31,6.66-15.31h5.44l7.08,15.39,5.82-15.39h5.4l-9.23,24.46h-3.96l-7.8-17.25-7.42,17.25h-4.01Z"/><path d="M184.19,231.5c-.86-.52-1.55-1.21-2.07-2.07-.52-.86-.78-1.79-.78-2.8v-.8h5.02v.63c0,.23.08.42.23.57.15.15.34.23.57.23h13.2c.22,0,.41-.08.57-.23.15-.15.23-.34.23-.57v-3.12c0-.2-.08-.37-.23-.53-.15-.15-.34-.23-.57-.23h-13.37c-1.01,0-1.95-.26-2.8-.78-.86-.52-1.55-1.21-2.07-2.07-.52-.86-.78-1.79-.78-2.8v-3.46c0-1.01.26-1.95.78-2.8.52-.86,1.21-1.55,2.07-2.07.86-.52,1.79-.78,2.8-.78h13.53c1.04,0,1.99.26,2.85.78.86.52,1.55,1.21,2.07,2.07.52.86.78,1.79.78,2.8v.8h-5.06v-.63c0-.22-.08-.41-.23-.57-.15-.15-.34-.23-.57-.23h-13.2c-.23,0-.42.08-.57.23-.15.15-.23.34-.23.57v3.12c0,.2.08.37.23.53.15.16.34.23.57.23h13.37c1.04,0,1.99.26,2.85.78.86.52,1.55,1.21,2.07,2.07.52.86.78,1.79.78,2.8v3.46c0,1.01-.26,1.95-.78,2.8-.52.86-1.21,1.55-2.07,2.07-.86.52-1.81.78-2.85.78h-13.53c-1.01,0-1.95-.26-2.8-.78Z"/><path d="M210.73,222.33v-5.02h17.03v5.02h-17.03Z"/><path d="M239.66,232.28v-23.36l-2.91,3.58h-6.66l8.9-10.58h5.73v30.36h-5.06Z"/><path d="M248.93,232.28v-11.59c0-1.04.25-1.99.76-2.85.51-.86,1.19-1.53,2.04-2.02.86-.49,1.8-.74,2.85-.74h18.76c.2,0,.37-.08.53-.23.15-.15.23-.34.23-.57v-6.54c0-.22-.08-.41-.23-.57-.15-.15-.33-.23-.53-.23h-18.6c-.22,0-.41.08-.57.23-.15.16-.23.34-.23.57v1.86h-5.02v-2.02c0-1.04.25-1.99.76-2.85s1.19-1.54,2.04-2.04,1.8-.76,2.85-.76h18.89c1.04,0,1.98.25,2.83.76.84.51,1.52,1.19,2.04,2.04.52.86.78,1.81.78,2.85v6.87c0,1.04-.26,1.99-.78,2.85-.52.86-1.2,1.55-2.04,2.07-.84.52-1.79.78-2.83.78h-18.72c-.22,0-.41.08-.57.23s-.23.33-.23.53v5.57c0,.23.08.42.23.57s.34.23.57.23h24.37v5.02h-30.19Z"/><path d="M286.73,231.5c-.86-.52-1.54-1.21-2.04-2.07s-.76-1.79-.76-2.8v-1.81h5.02v1.64c0,.23.08.42.23.57s.34.23.57.23h18.59c.2,0,.37-.08.53-.23s.23-.34.23-.57v-6.37c0-.22-.08-.41-.23-.57-.15-.15-.33-.23-.53-.23h-24.41v-17.37h30.19v5.02h-24.37c-.23,0-.42.08-.57.23-.15.16-.23.34-.23.57v5.69c0,.22.08.42.23.57.15.16.34.23.57.23h18.72c1.04,0,1.98.25,2.82.76s1.53,1.19,2.04,2.04.78,1.81.78,2.85v6.75c0,1.01-.25,1.95-.76,2.8s-1.19,1.55-2.04,2.07c-.86.52-1.81.78-2.85.78h-18.89c-1.04,0-1.99-.26-2.85-.78Z"/><path d="M318.92,232.28v-11.59c0-1.04.25-1.99.76-2.85.51-.86,1.19-1.53,2.04-2.02.86-.49,1.8-.74,2.85-.74h18.76c.2,0,.37-.08.53-.23.15-.15.23-.34.23-.57v-6.54c0-.22-.08-.41-.23-.57-.15-.15-.33-.23-.53-.23h-18.6c-.22,0-.41.08-.57.23-.15.16-.23.34-.23.57v1.86h-5.02v-2.02c0-1.04.25-1.99.76-2.85s1.19-1.54,2.04-2.04,1.8-.76,2.85-.76h18.89c1.04,0,1.98.25,2.83.76.84.51,1.52,1.19,2.04,2.04.52.86.78,1.81.78,2.85v6.87c0,1.04-.26,1.99-.78,2.85-.52.86-1.2,1.55-2.04,2.07-.84.52-1.79.78-2.83.78h-18.72c-.22,0-.41.08-.57.23s-.23.33-.23.53v5.57c0,.23.08.42.23.57s.34.23.57.23h24.37v5.02h-30.19Z"/></svg>