<svg viewBox="0 0 492.39 493"><path d="M425.56,493H36.8c-20.29,0-36.8-16.51-36.8-36.8V67.44C0,47.15,16.51,30.65,36.8,30.65h165.58c4.42,0,8,3.58,8,8s-3.58,8-8,8H36.8c-11.47,0-20.8,9.33-20.8,20.8v388.76c0,11.47,9.33,20.8,20.8,20.8h388.76c11.47,0,20.8-9.33,20.8-20.8v-165.58c0-4.42,3.58-8,8-8s8,3.58,8,8v165.58c0,20.29-16.51,36.8-36.8,36.8Z"/><path d="M158.55,332.53l23.21-86.59,6.82-6.82L419.73,7.97c5.14-5.14,11.97-7.97,19.23-7.97s14.1,2.83,19.23,7.97l26.24,26.24c10.6,10.6,10.6,27.86,0,38.46l-235.7,235.7-90.18,24.15ZM196.1,254.22l-14.92,55.69,59.27-15.87,1.52-1.52L473.12,61.36c4.37-4.37,4.37-11.47,0-15.84l-26.24-26.24c-2.11-2.12-4.93-3.28-7.92-3.28s-5.8,1.16-7.92,3.28l-234.94,234.94Z"/></svg>