<?xml version="1.0" encoding="UTF-8"?><svg id="Layer_1" xmlns="http://www.w3.org/2000/svg" xmlns:xlink="http://www.w3.org/1999/xlink" viewBox="0 0 604.29 309.65"><defs><style>.cls-1{fill:#13eff8;}.cls-1,.cls-2,.cls-3,.cls-4,.cls-5,.cls-6,.cls-7,.cls-8,.cls-9,.cls-10,.cls-11,.cls-12,.cls-13,.cls-14,.cls-15,.cls-16,.cls-17,.cls-18,.cls-19,.cls-20,.cls-21,.cls-22,.cls-23,.cls-24,.cls-25,.cls-26,.cls-27,.cls-28,.cls-29,.cls-30,.cls-31,.cls-32,.cls-33,.cls-34,.cls-35{stroke-width:0px;}.cls-2{fill:url(#radial-gradient-16);}.cls-3{fill:url(#linear-gradient);}.cls-4{fill:url(#linear-gradient-6);}.cls-5{fill:url(#radial-gradient-8);}.cls-6{fill:#22f6ff;}.cls-7{fill:url(#radial-gradient-13);}.cls-8{fill:url(#radial-gradient-12);}.cls-9{fill:url(#linear-gradient-5);}.cls-10{fill:none;}.cls-11{fill:url(#radial-gradient-22);}.cls-12{fill:url(#radial-gradient-19);}.cls-13{fill:url(#radial-gradient-20);}.cls-14{fill:url(#linear-gradient-2);}.cls-15{fill:url(#radial-gradient-17);}.cls-16{fill:url(#radial-gradient-21);}.cls-17{fill:url(#linear-gradient-7);}.cls-18{fill:url(#radial-gradient-2);}.cls-19{fill:url(#radial-gradient-7);}.cls-20{fill:url(#linear-gradient-3);}.cls-21{fill:url(#radial-gradient-5);}.cls-22{fill:url(#linear-gradient-9);}.cls-23{fill:url(#radial-gradient);}.cls-24{fill:url(#radial-gradient-14);}.cls-25{fill:url(#linear-gradient-8);}.cls-26{fill:url(#radial-gradient-18);}.cls-27{fill:url(#radial-gradient-10);}.cls-28{fill:url(#radial-gradient-6);}.cls-29{fill:url(#linear-gradient-10);}.cls-30{fill:url(#radial-gradient-15);}.cls-31{fill:url(#radial-gradient-9);}.cls-32{fill:url(#radial-gradient-3);}.cls-33{fill:url(#radial-gradient-11);}.cls-34{fill:url(#linear-gradient-4);}.cls-35{fill:url(#radial-gradient-4);}</style><radialGradient id="radial-gradient" cx="-599.09" cy="-292.39" fx="-599.09" fy="-292.39" r="1" gradientTransform="translate(144122.59 -70038.1) scale(240.07 -240.07)" gradientUnits="userSpaceOnUse"><stop offset="0" stop-color="#0a616d"/><stop offset="1" stop-color="#191e33"/></radialGradient><radialGradient id="radial-gradient-2" cx="-599.09" cy="-292.39" fx="-599.09" fy="-292.39" r="1" gradientTransform="translate(144122.59 -70038.1) scale(240.07 -240.07)" gradientUnits="userSpaceOnUse"><stop offset="0" stop-color="#0a616d"/><stop offset="1" stop-color="#191e33"/></radialGradient><radialGradient id="radial-gradient-3" cx="-599.09" cy="-292.39" fx="-599.09" fy="-292.39" r="1" gradientTransform="translate(144122.59 -70038.1) scale(240.07 -240.07)" gradientUnits="userSpaceOnUse"><stop offset="0" stop-color="#0a616d"/><stop offset="1" stop-color="#191e33"/></radialGradient><radialGradient id="radial-gradient-4" cx="-599.09" cy="-292.39" fx="-599.09" fy="-292.39" r="1" gradientTransform="translate(144122.59 -70038.1) scale(240.07 -240.07)" gradientUnits="userSpaceOnUse"><stop offset="0" stop-color="#0a616d"/><stop offset="1" stop-color="#191e33"/></radialGradient><radialGradient id="radial-gradient-5" cx="-599.09" cy="-292.39" fx="-599.09" fy="-292.39" r="1" gradientTransform="translate(144122.59 -70038.1) scale(240.07 -240.07)" gradientUnits="userSpaceOnUse"><stop offset="0" stop-color="#0a616d"/><stop offset="1" stop-color="#191e33"/></radialGradient><linearGradient id="linear-gradient" x1="0" y1="123.07" x2="411.46" y2="123.07" gradientUnits="userSpaceOnUse"><stop offset="0" stop-color="#191e33"/><stop offset=".11" stop-color="#192c41"/><stop offset=".32" stop-color="#1b5466"/><stop offset=".6" stop-color="#1d93a2"/><stop offset=".95" stop-color="#20eaf3"/><stop offset="1" stop-color="#21f6ff"/></linearGradient><linearGradient id="linear-gradient-2" x1="-599.09" y1="-292.39" x2="-598.09" y2="-292.39" gradientTransform="translate(92787.74 -45026.6) scale(154.52 -154.52)" gradientUnits="userSpaceOnUse"><stop offset="0" stop-color="#0e3545"/><stop offset="1" stop-color="#17c3cd"/></linearGradient><radialGradient id="radial-gradient-6" cx="-599.09" cy="-292.39" fx="-599.09" fy="-292.39" r="1" gradientTransform="translate(144122.59 -70038.1) scale(240.07 -240.07)" gradientUnits="userSpaceOnUse"><stop offset="0" stop-color="#0a616d"/><stop offset="1" stop-color="#191e33"/></radialGradient><radialGradient id="radial-gradient-7" cx="501.08" cy="146.85" fx="501.08" fy="146.85" r="11.96" gradientUnits="userSpaceOnUse"><stop offset="0" stop-color="#fff"/><stop offset=".38" stop-color="#fdfeff"/><stop offset=".52" stop-color="#f6feff"/><stop offset=".62" stop-color="#eafeff"/><stop offset=".7" stop-color="#d9fdff"/><stop offset=".77" stop-color="#c3fcff"/><stop offset=".83" stop-color="#a8fbff"/><stop offset=".88" stop-color="#87faff"/><stop offset=".93" stop-color="#62f8ff"/><stop offset=".98" stop-color="#39f6ff"/><stop offset="1" stop-color="#22f6ff"/></radialGradient><radialGradient id="radial-gradient-8" cx="-598.96" cy="-292.35" fx="-598.96" fy="-292.35" r=".85" gradientTransform="translate(144122.66 -70038.13) scale(240.07 -240.07)" gradientUnits="userSpaceOnUse"><stop offset="0" stop-color="#0a616d"/><stop offset=".17" stop-color="#0c5361"/><stop offset=".71" stop-color="#152c3f"/><stop offset="1" stop-color="#191e33"/></radialGradient><linearGradient id="linear-gradient-3" x1="-599.09" y1="-292.36" x2="-598.09" y2="-292.36" xlink:href="#linear-gradient-2"/><radialGradient id="radial-gradient-9" cx="-599.09" cy="-292.39" fx="-599.09" fy="-292.39" r="1" gradientTransform="translate(144122.66 -70038.13) scale(240.07 -240.07)" gradientUnits="userSpaceOnUse"><stop offset="0" stop-color="#0a616d"/><stop offset="1" stop-color="#191e33"/></radialGradient><linearGradient id="linear-gradient-4" x1="-599.09" y1="-292.33" y2="-292.33" xlink:href="#linear-gradient-2"/><radialGradient id="radial-gradient-10" cx="-599.09" fx="-599.09" r="1" xlink:href="#radial-gradient-9"/><linearGradient id="linear-gradient-5" x1="-599.09" y1="-292.45" y2="-292.45" xlink:href="#linear-gradient-2"/><radialGradient id="radial-gradient-11" cx="-599.09" fx="-599.09" r="1" xlink:href="#radial-gradient-9"/><linearGradient id="linear-gradient-6" x1="-599.09" y1="-292.36" y2="-292.36" xlink:href="#linear-gradient-2"/><radialGradient id="radial-gradient-12" cx="-599.09" fx="-599.09" r="1" xlink:href="#radial-gradient-9"/><linearGradient id="linear-gradient-7" x1="-599.09" y1="-292.5" y2="-292.5" xlink:href="#linear-gradient-2"/><radialGradient id="radial-gradient-13" cx="-599.09" cy="-292.39" fx="-599.09" fy="-292.39" r="1" xlink:href="#radial-gradient-9"/><linearGradient id="linear-gradient-8" x1="-599.09" y1="-292.29" y2="-292.29" xlink:href="#linear-gradient-2"/><radialGradient id="radial-gradient-14" cx="-599.09" cy="-292.39" fx="-599.09" fy="-292.39" r="1" xlink:href="#radial-gradient-9"/><linearGradient id="linear-gradient-9" x1="-599.09" y1="-292.33" y2="-292.33" xlink:href="#linear-gradient-2"/><radialGradient id="radial-gradient-15" cx="-599.09" fx="-599.09" r="1" xlink:href="#radial-gradient-9"/><linearGradient id="linear-gradient-10" x1="-599.09" y1="-292.47" y2="-292.47" xlink:href="#linear-gradient-2"/><radialGradient id="radial-gradient-16" cx="-599.09" cy="-292.39" fx="-599.09" fy="-292.39" r="1" xlink:href="#radial-gradient-9"/><radialGradient id="radial-gradient-17" cx="563.52" cy="186.31" fx="563.52" fy="186.31" r="40.26" gradientUnits="userSpaceOnUse"><stop offset="0" stop-color="#d0c2c3"/><stop offset="1" stop-color="#fff"/></radialGradient><radialGradient id="radial-gradient-18" cx="-599.09" cy="-292.39" fx="-599.09" fy="-292.39" r="1" gradientTransform="translate(144122.59 -70038.1) scale(240.07 -240.07)" gradientUnits="userSpaceOnUse"><stop offset="0" stop-color="#0a616d"/><stop offset="1" stop-color="#191e33"/></radialGradient><radialGradient id="radial-gradient-19" cx="-599.09" cy="-292.39" fx="-599.09" fy="-292.39" r="1" gradientTransform="translate(144122.59 -70038.1) scale(240.07 -240.07)" gradientUnits="userSpaceOnUse"><stop offset="0" stop-color="#0a616d"/><stop offset="1" stop-color="#191e33"/></radialGradient><radialGradient id="radial-gradient-20" cx="-599.08" cy="-292.39" fx="-599.08" fy="-292.39" r="1" gradientTransform="translate(144122.59 -70038.1) scale(240.07 -240.07)" gradientUnits="userSpaceOnUse"><stop offset="0" stop-color="#0a616d"/><stop offset="1" stop-color="#191e33"/></radialGradient><radialGradient id="radial-gradient-21" cx="426.59" cy="60.68" fx="426.59" fy="60.68" r="41.65" gradientUnits="userSpaceOnUse"><stop offset="0" stop-color="#c9babe"/><stop offset="1" stop-color="#fff"/></radialGradient><radialGradient id="radial-gradient-22" cx="561.31" cy="166.91" fx="561.31" fy="166.91" r="27.81" gradientUnits="userSpaceOnUse"><stop offset="0" stop-color="#c9babe"/><stop offset="1" stop-color="#fff"/></radialGradient></defs><path class="cls-23" d="M468.6,217.52c-9.62-3.33-19.24-6.68-28.9-9.9-.94-.31-2.31-.08-3.23.38-6.24,3.16-12.36,6.55-18.61,9.68-32.53,16.27-65.07,32.48-97.64,48.66-1.38.69-3.08,1.28-4.55,1.13-6.1-.63-12.16-1.57-18.24-2.37-17.6-2.34-35.21-4.6-52.8-7.04-3.89-.54-7.99-1.09-11.49-2.71-10.63-4.94-20.99-10.46-31.51-15.66-13.16-6.51-25.92-13.68-41-15.7-14.54-1.94-28.87-5.55-44.18-8.6,1.69.97,2.59,1.54,3.53,2.02,35.61,18.23,71.22,36.46,106.86,54.64,1.89.96,3.96,1.69,6.04,2.15,19.09,4.27,38.21,8.44,57.31,12.67,18.26,4.05,36.44,8.48,54.79,12.09,12.55,2.47,25.32,3.83,37.99,5.64,12,1.71,24,3.36,36,5.04.21-.24.43-.48.64-.72-.59-.28-1.26-.46-1.76-.86-14.08-11.03-28.13-22.1-42.23-33.1-1.14-.89-2.61-1.51-4.02-1.89-4.8-1.28-9.64-2.41-15.43-3.83,38.35-17.21,75.82-34.03,113.51-50.94-.57-.43-.79-.7-1.07-.79Z"/><path class="cls-10" d="M365.71,165.55c1.34-.58,2.69-1.16,4.08-1.72-3.52-4.8-6.69-9.26-10.06-13.56h0c3.37,4.3,6.54,8.76,10.06,13.56-1.39.56-2.74,1.14-4.08,1.72Z"/><path class="cls-10" d="M351.61,170.64c.54-.06,1.08-.14,1.6-.28,1.87-.52,3.71-1.17,5.54-1.88-1.83.72-3.67,1.36-5.54,1.88-.51.14-1.05.22-1.59.28Z"/><path class="cls-10" d="M359.47,150s.09.09.13.14c-.04-.05-.08-.09-.13-.14Z"/><path class="cls-10" d="M242.83,139.57c15,1.18,34.15,2.7,48.65,3.85-14.5-1.16-33.65-2.68-48.65-3.85Z"/><path class="cls-10" d="M490.28,142.06c-.12-.08-.23-.19-.34-.29.11.1.22.21.35.29,7.75,5.16,15.72,10,23.62,14.95.06-.09.13-.17.19-.26-.07.09-.13.17-.2.26-7.9-4.95-15.87-9.79-23.62-14.95Z"/><path class="cls-10" d="M599.39,227.95s-.07-.02-.1-.03c.03.01.07.02.1.03Z"/><path class="cls-10" d="M359.25,149.83c-.71-.49-1.78-.76-2.64-.84-7.14-.65-14.28-1.26-21.42-1.88,7.14.62,14.28,1.24,21.42,1.88.86.08,1.93.35,2.64.84Z"/><path class="cls-10" d="M319.05,165.14c8.12,1.55,16.21,3.22,24.34,4.68,1.74.31,3.58.68,5.38.82-1.8-.15-3.64-.51-5.38-.82-8.13-1.46-16.23-3.13-24.35-4.68Z"/><path class="cls-10" d="M492.96,139.34c3.93,2.45,7.88,4.88,11.74,7.44-3.86-2.56-7.81-4.99-11.74-7.44Z"/><path class="cls-10" d="M215.6,140.53l1.37-1.22c.25-.22.68-.51,1.17-.78-.49.27-.93.56-1.17.78l-1.37,1.22c-.53.47-.4,1.31.17,1.62-.57-.32-.7-1.15-.17-1.62Z"/><path class="cls-10" d="M487.87,136.93c-.11.1-.22.2-.33.3.19.35.36.74.53,1.13-.17-.39-.34-.77-.53-1.13.11-.1.22-.2.33-.3Z"/><path class="cls-10" d="M561.03,207.44c.59.78,1.3,1.45,2.04,1.84,9.95,5.29,19.98,10.42,30.02,15.53-10.04-5.12-20.07-10.25-30.02-15.54-.74-.39-1.46-1.06-2.04-1.84Z"/><path class="cls-10" d="M305.6,162.36c-15-3.34-47.62-10.67-69.57-15.61,21.95,4.94,54.58,12.28,69.57,15.61Z"/><path class="cls-10" d="M557.17,194.09c.76,3.65,1.62,7.27,2.59,10.86.04.16.1.32.16.48-.06-.16-.12-.32-.16-.47-.97-3.59-1.84-7.22-2.6-10.86Z"/><path class="cls-10" d="M596.93,219.6c2.71,4,4.41,7.13,4.74,8.97,0,0,0,0,0,0-.33-1.84-2.04-4.97-4.74-8.97Z"/><path class="cls-10" d="M568.3,184.63c-16.79-18.53-35.17-36.54-42.94-40.59,0,0,0,0,0,.01,7.78,4.06,26.16,22.05,42.93,40.58Z"/><path class="cls-10" d="M536.91,156.16c1.94,2.04,3.89,4.08,5.82,6.13,5.56,5.89,9.73,12.48,12,20.1-2.27-7.62-6.45-14.21-12-20.11-1.93-2.05-3.88-4.09-5.82-6.13Z"/><path class="cls-6" d="M401.52,143.89c-3.03.5-8.89.54-14.83-2.74-4.14-2.29-6.39-5.57-7.41-7.31-5.72-.15-11.43-.3-17.15-.46,3.89,7.31,7.99,12.76,11.12,16.46,5.83,6.9,9.49,9.15,11.12,10.06,2.43,1.35,6.01,3.28,11.12,3.66,5.02.37,9-.95,11.12-1.83,9.25-4.14,19.25-9.24,29.66-15.54,6.01-3.64,12.32-6.47,16.68-10.97.33-.34,1.11-1.77.93-3.66-.2-2.1-1.53-3.36-1.85-3.66-4.48-3.62-9.42-7.31-14.83-10.97-9.44-6.39-18.55-11.48-26.88-15.54-2.58-1.3-9.72-4.46-18.54-2.74-4.04.79-7.16,2.35-9.27,3.66-2.91,2.26-6.06,4.98-9.27,8.23-2.48,2.52-4.63,4.99-6.49,7.31,6.33.15,12.67.3,19,.46,1.71-1.8,3.39-2.95,4.63-3.66,1.46-.83,2.76-1.58,4.63-1.83,2.48-.32,4.56.33,5.56.91,5.21,3.06,14.83,10.06,17.61,15.54,1.31,2.58-1.54,6.09-2.78,7.31-5.56,5.49-10.93,6.83-13.9,7.31Z"/><path class="cls-18" d="M197.22,226.21c17.16,8.46,34.32,16.91,51.5,25.32.93.46,2.05.62,3.1.73,13.7,1.47,27.39,2.94,41.1,4.3,2.21.22,4.71.57,6.67-.19,5.88-2.29,11.56-5.11,17.32-7.72.06-.4.12-.8.18-1.19-6.8-1.82-13.52-4.06-20.41-5.37-24.39-4.64-48.82-9.05-73.27-13.35-8.88-1.56-17.85-2.59-26.78-3.86.12.93.32,1.21.59,1.34Z"/><path class="cls-32" d="M193.18,44.61c19.29-.32,38.58-.54,57.87-1.03,4.57-.12,9.29-.53,13.66-1.78,19.22-5.5,38.32-11.43,57.51-17.03,3.14-.92,6.54-1.36,9.82-1.34,17.03.1,34.06.23,51.08.74,16.35.49,32.87-.99,48.98,2.48,8.14,1.76,14.22-.74,20.42-5.3,6.53-4.8,13.42-9.09,20.84-14.06-1.38-.08-1.87-.14-2.37-.14-51.19.26-102.38.49-153.58.86-5.34.04-10.94,0-15.96,1.54-30.83,9.45-61.52,19.34-92.26,29.08-5.78,1.83-11.56,3.64-17.34,5.46.04.15.07.29.11.44.41.03.81.09,1.22.08Z"/><path class="cls-35" d="M207,198.52c16.04.75,32.07,1.72,48.12,2.3,9.88.35,19.86,2,29.3-3.4,5.9-3.37,12.48-5.54,18.75-8.25-.06-.22-.13-.44-.19-.66-9.54-2.13-19.04-4.49-28.64-6.32-11.37-2.17-22.4-6.04-34.16-6.37-38.35-1.09-76.7-2.38-115.05-3.57-20.68-.64-41.37-1.25-62.06-1.8-5.91-.16-11.82-.02-18.11-.02.84.34,1.31.59,1.81.74,21.05,6.12,42.09,12.29,63.17,18.31,7.22,2.06,14.47,4.87,21.84,5.37,25.05,1.7,50.15,2.5,75.23,3.68Z"/><path class="cls-21" d="M276.66,4.55c-1.48-1.59-2.37-2.89-3.57-3.72-.86-.59-2.34-1.05-3.22-.72-19.46,7.18-38.88,14.48-58.3,21.77-5.82,2.19-11.62,4.44-17.43,6.66.07.2.14.4.21.59,27.23-8.13,54.46-16.26,82.31-24.58Z"/><path class="cls-3" d="M410.41,132.47c.88.04,1.38-1,.8-1.66-2.47-2.8-4.94-5.59-7.41-8.39-.56-.63-1.35-1-2.19-1.01-133.87-2.58-267.74-5.17-401.61-7.75,136.8,6.27,273.61,12.54,410.41,18.81Z"/><path class="cls-14" d="M369.79,163.83c-3.52-4.79-6.69-9.26-10.06-13.56-.04-.05-.09-.09-.13-.14-.04-.05-.08-.09-.13-.14-.07-.06-.14-.11-.22-.16-.71-.49-1.78-.76-2.64-.84-7.14-.65-14.28-1.26-21.42-1.88-7.43-.64-14.87-1.29-22.3-1.96-.79-.07-9.54-.78-21.4-1.73-14.5-1.16-33.65-2.68-48.65-3.85-10.87-.85-19.55-1.52-22.69-1.74-.47-.04-1.29.31-2,.7-.49.27-.93.57-1.17.78l-1.37,1.22c-.53.47-.4,1.3.17,1.62.08.04.17.08.27.1,3.31.75,10.7,2.41,19.99,4.5,21.95,4.94,54.57,12.27,69.57,15.61,4.63,1.03,7.58,1.68,8.02,1.76,1.81.33,3.62.68,5.43,1.02,8.12,1.55,16.21,3.22,24.35,4.68,1.74.31,3.58.68,5.38.82.97.08,1.92.09,2.83,0,.54-.06,1.08-.14,1.59-.28,1.87-.52,3.71-1.16,5.54-1.88,2.3-.9,4.6-1.91,6.96-2.93,1.34-.58,2.69-1.16,4.08-1.72Z"/><path class="cls-28" d="M178.4,210.33c8.4,1.83,16.81,3.66,25.21,5.49-7.11-8.38-16.16-6.92-25.21-5.49Z"/><path class="cls-19" d="M508.67,149.48c-1.31-.92-2.64-1.82-3.97-2.7-3.86-2.55-7.81-4.99-11.74-7.44-.82-.51-1.64-1.02-2.45-1.53-.73-.46-1.57-.75-2.36-1.12-.09.08-.18.16-.27.24-.11.1-.22.2-.33.3.19.35.36.74.53,1.13.54,1.26,1.02,2.61,1.87,3.41.11.1.22.21.34.29,7.75,5.16,15.72,10,23.62,14.95.06-.09.13-.17.2-.26.17-.22.34-.45.51-.67-1.95-2.23-3.57-4.94-5.93-6.6Z"/><path class="cls-6" d="M488.19,136.99c.21.09.41.18.62.27.53.23,1.08.46,1.56.76.6.38,1.2.75,1.79,1.12l.66.41,1.71,1.07c3.31,2.06,6.73,4.18,10.02,6.37,1.09.72,2.53,1.68,3.97,2.7,1.59,1.12,2.88,2.77,4.12,4.37.53.68,1.07,1.38,1.63,2.03-.08.11-.17.22-.25.33l-.13.17-.05.06h-.01c-1.94-1.2-3.89-2.42-5.84-3.63-5.8-3.61-11.8-7.34-17.58-11.18-.1-.07-.19-.15-.31-.27-.7-.66-1.15-1.76-1.6-2.82l-.21-.5c-.13-.32-.28-.65-.45-.97l.18-.17.15-.13M488.14,136.69c-.09.08-.18.16-.27.24-.11.1-.22.2-.33.3.19.35.36.74.53,1.13.54,1.26,1.02,2.61,1.87,3.41.11.1.22.21.34.29,7.75,5.16,15.72,10,23.62,14.95.06-.09.13-.17.2-.26.17-.22.34-.45.51-.67-1.95-2.23-3.57-4.94-5.93-6.6-1.31-.92-2.64-1.82-3.97-2.7-3.86-2.55-7.81-4.99-11.74-7.44-.82-.51-1.64-1.02-2.45-1.53-.73-.46-1.57-.75-2.36-1.12h0Z"/><path class="cls-5" d="M602.72,224.89c-20.34-31.16-45.8-57.66-74.55-81.05-37.51-30.51-78.59-55.48-121.58-77.41-2.24-1.14-4.82-1.96-7.31-2.23-21.61-2.32-43.2-5.16-64.87-6.51-26.55-1.64-53.19-2.97-79.77-2.66-41.36.48-82.71,2.29-124.06,3.85-19.48.74-38.93,2.19-58.39,3.36-4.03.24-8.04.7-12.95,1.13,5.91,3.74,11.04,7.04,16.23,10.24.66.41,1.65.39,2.48.39,36.33.09,72.66.13,108.99.29,1.48.01,3.34.83,4.38,1.9,9.38,9.66,18.6,19.5,27.95,29.2.94.98,2.43,1.94,3.72,2.02,21.07,1.31,42.15,2.5,63.24,3.68,22.69,1.28,45.4,2.46,68.09,3.85,2.71.17,4.19-.76,5.96-2.63,5.45-5.77,10.84-11.7,16.94-16.73,7.37-6.08,15.61-6.39,24.43-2.13,19.35,9.34,37.26,20.96,55,32.97,4.47,3.03,5.43,6.82,6.26,10.48-2.49.91-4.66,1.57-6.71,2.49-1.55.71-2.94,1.77-4.43,2.64-14.2,8.35-28.62,16.18-44.03,22.19-11.23,4.37-20.97,2.5-30.02-5.1-6.85-5.75-15.41-17.86-19.84-25.51l-140.99-6.54c-1.38-.08-2.93-.31-4.14.18-10.12,4.13-20.18,8.41-30.26,12.64,52.1,18.81,105.96,29.8,160.61,40.47-1.07.74-1.39,1.03-1.76,1.2-17.27,8.27-34.53,16.58-51.86,24.74-1.86.88-4.12,1.3-6.19,1.31-17.9.14-35.79.14-53.69.18h-3.44c-.09.42-.17.84-.26,1.26,1.33.37,2.65.95,4,1.07,11.47,1.04,22.95,2.02,34.43,2.99,16.53,1.4,33.06,2.8,49.59,4.12,1.44.12,3.06-.11,4.36-.7,11.36-5.17,22.67-10.43,33.99-15.69,33.26-15.46,66.51-30.94,99.8-46.32,1.06-.49,2.8-.53,3.81.01,13.77,7.33,27.47,14.78,41.16,22.25,1,.55,2.08,1.33,2.61,2.29,2.35,4.18,4.51,8.47,6.94,13.12-1.13-.31-1.84-.46-2.51-.7-7.71-2.72-15.53-5.15-23.06-8.29-5.49-2.28-10.43-2.4-15.96-.09-8.11,3.38-16.51,6.07-25.3,9.24,1.45.6,2.31,1,3.21,1.32,28.36,10.03,56.75,20,85.07,30.16,3.98,1.42,7.47,1.69,11.3-.3,3.14-1.62,6.51-2.85,9.88-3.93,1.5-.48,3.38-.56,4.88-.11,4.52,1.37,8.94,3.07,13.39,4.67,10.22,3.66,20.42,7.37,30.65,11,1.4.49,2.91,1.48,4.3-.43,2.34-3.21,2.49-6.45.28-9.84ZM353.2,170.36c-.51.14-1.05.22-1.6.28-.92.09-1.87.09-2.83,0-1.8-.15-3.64-.51-5.38-.82-8.13-1.46-16.23-3.12-24.34-4.68-1.81-.34-3.61-.69-5.42-1.02-.44-.08-3.4-.73-8.02-1.76-15-3.33-47.62-10.67-69.57-15.61-9.29-2.09-16.67-3.75-19.98-4.5-.1-.02-.19-.06-.27-.1-.57-.31-.7-1.15-.17-1.62l1.37-1.22c.24-.22.68-.51,1.17-.78.71-.4,1.52-.74,2-.71,3.14.22,11.82.89,22.69,1.74,15,1.17,34.15,2.7,48.65,3.85,11.87.95,20.62,1.65,21.41,1.72,7.43.68,14.86,1.32,22.29,1.96,7.14.62,14.28,1.23,21.42,1.88.86.08,1.93.35,2.64.84.08.05.15.1.22.16.05.04.09.09.13.14.04.05.09.09.13.14h0s0,0,0,0c3.37,4.3,6.54,8.76,10.06,13.56-1.39.56-2.75,1.14-4.08,1.72-2.36,1.02-4.66,2.03-6.96,2.93-1.83.72-3.67,1.37-5.54,1.88ZM513.9,157.01c-7.9-4.95-15.87-9.79-23.62-14.95-.12-.08-.23-.19-.35-.29-.85-.79-1.33-2.14-1.87-3.41-.17-.39-.34-.78-.53-1.13.11-.1.22-.2.33-.3.09-.08.18-.16.27-.25.79.37,1.63.66,2.36,1.12.82.51,1.64,1.02,2.45,1.53,3.93,2.45,7.88,4.88,11.74,7.44,1.34.88,2.67,1.78,3.97,2.7,2.36,1.66,3.98,4.37,5.93,6.6-.17.22-.34.45-.51.67-.06.09-.13.17-.19.26ZM601.67,228.57c-.83-.25-1.59-.4-2.28-.62-.03-.01-.07-.02-.1-.03-.24-.08-.47-.17-.68-.29-1.84-.94-3.68-1.88-5.52-2.82-10.04-5.12-20.07-10.24-30.02-15.53-.74-.4-1.46-1.07-2.04-1.84-.48-.63-.86-1.33-1.11-2.01-.06-.16-.12-.32-.16-.48-.97-3.59-1.84-7.21-2.59-10.86-.42-2.04-.82-4.08-1.16-6.12-.32-1.92-.75-3.78-1.28-5.57-2.27-7.62-6.45-14.21-12-20.1-1.93-2.05-3.88-4.09-5.82-6.13-3.84-4.03-7.7-8.07-11.56-12.12,0,0,0,0,.01,0,0,0,0,0,0-.01,7.77,4.05,26.16,22.05,42.94,40.59,11.71,12.92,22.63,26.1,28.64,34.98,2.71,4,4.41,7.13,4.74,8.97,0,0,0,0,0,0,0,0,0,0,0,0Z"/><path class="cls-20" d="M359.73,150.27s-.09-.09-.13-.14c.04.05.1.09.13.14h0Z"/><path class="cls-31" d="M359.73,150.27s-.09-.09-.13-.14c.04.05.1.09.13.14h0Z"/><path class="cls-34" d="M335.18,147.11c-7.43-.64-14.86-1.29-22.29-1.96-.79-.07-9.54-.78-21.41-1.72,11.86.95,20.61,1.65,21.4,1.73,7.43.67,14.86,1.32,22.3,1.96Z"/><path class="cls-27" d="M335.18,147.11c-7.43-.64-14.86-1.29-22.29-1.96-.79-.07-9.54-.78-21.41-1.72,11.86.95,20.61,1.65,21.4,1.73,7.43.67,14.86,1.32,22.3,1.96Z"/><path class="cls-9" d="M305.6,162.36c4.63,1.03,7.58,1.68,8.02,1.76,1.81.33,3.62.67,5.42,1.02-1.81-.35-3.62-.69-5.43-1.02-.44-.08-3.39-.73-8.02-1.76Z"/><path class="cls-33" d="M305.6,162.36c4.63,1.03,7.58,1.68,8.02,1.76,1.81.33,3.62.67,5.42,1.02-1.81-.35-3.62-.69-5.43-1.02-.44-.08-3.39-.73-8.02-1.76Z"/><path class="cls-4" d="M359.25,149.83c.08.05.15.1.22.16-.07-.06-.14-.11-.22-.16Z"/><path class="cls-8" d="M359.25,149.83c.08.05.15.1.22.16-.07-.06-.14-.11-.22-.16Z"/><path class="cls-17" d="M348.77,170.64c.97.08,1.92.09,2.83,0-.92.09-1.87.09-2.83,0Z"/><path class="cls-7" d="M348.77,170.64c.97.08,1.92.09,2.83,0-.92.09-1.87.09-2.83,0Z"/><path class="cls-25" d="M242.83,139.57c-10.86-.85-19.55-1.52-22.69-1.74-.48-.03-1.29.31-2,.71.71-.39,1.53-.74,2-.7,3.14.22,11.82.89,22.69,1.74Z"/><path class="cls-24" d="M242.83,139.57c-10.86-.85-19.55-1.52-22.69-1.74-.48-.03-1.29.31-2,.71.71-.39,1.53-.74,2-.7,3.14.22,11.82.89,22.69,1.74Z"/><path class="cls-22" d="M215.77,142.15c.08.05.17.08.27.1,3.31.75,10.69,2.41,19.98,4.5-9.29-2.09-16.67-3.76-19.99-4.5-.1-.02-.19-.06-.27-.1Z"/><path class="cls-30" d="M215.77,142.15c.08.05.17.08.27.1,3.31.75,10.69,2.41,19.98,4.5-9.29-2.09-16.67-3.76-19.99-4.5-.1-.02-.19-.06-.27-.1Z"/><path class="cls-29" d="M358.75,168.48c2.3-.9,4.6-1.91,6.96-2.93-2.36,1.02-4.66,2.03-6.96,2.93Z"/><path class="cls-2" d="M358.75,168.48c2.3-.9,4.6-1.91,6.96-2.93-2.36,1.02-4.66,2.03-6.96,2.93Z"/><path class="cls-15" d="M596.93,219.6c2.71,4,4.41,7.13,4.74,8.97-.83-.25-1.59-.4-2.28-.62-.03-.01-.07-.02-.1-.03-.24-.08-.46-.17-.68-.29-1.84-.94-3.68-1.88-5.52-2.82-10.04-5.12-20.07-10.25-30.02-15.54-.74-.39-1.46-1.06-2.04-1.84-.47-.63-.86-1.33-1.11-2.01-.06-.16-.12-.32-.16-.47-.97-3.59-1.84-7.22-2.6-10.86-.42-2.04-.82-4.07-1.16-6.12-.32-1.92-.75-3.78-1.29-5.58-2.27-7.62-6.45-14.21-12-20.11-1.93-2.05-3.88-4.09-5.82-6.13-3.84-4.03-7.69-8.06-11.54-12.11,7.78,4.06,26.16,22.05,42.93,40.58,11.7,12.92,22.63,26.1,28.64,34.98Z"/><path class="cls-26" d="M397.29,220.13c-1.02.17-2.15.12-3.05.56-23.6,11.46-47.18,22.96-70.74,34.49-1.77.87-3.45,1.92-5.17,2.88.19.36.37.73.56,1.09,26.24-12.59,52.48-25.18,78.72-37.77-.11-.41-.21-.83-.32-1.24Z"/><path class="cls-12" d="M141.77,241.63c.16.14.29.32.47.42,25.61,14.56,51.21,29.12,76.85,43.62.7.4,1.9.51,2.6.19,2.06-.96,3.99-2.21,6.46-3.62-29.09-13.82-57.65-27.39-86.21-40.96-.06.12-.11.23-.17.35Z"/><path class="cls-1" d="M425.73,215.71c-1.67.84-4.17,2.11-7.04,3.59l21.25,8.88c.74.29,1.76.48,2.45.2,2.87-1.16,5.67-2.51,9.19-4.11l-21.41-8.75c-1.43-.59-3.05-.52-4.43.18Z"/><path class="cls-1" d="M414.11,221.96c-1.6.81-4,2.03-6.76,3.45l20.39,8.52c.71.28,1.69.46,2.35.19,2.76-1.11,5.44-2.41,8.82-3.94l-20.55-8.4c-1.38-.56-2.93-.5-4.25.17Z"/><path class="cls-1" d="M437.38,210.16c-1.57.76-3.95,1.93-6.75,3.32l22.17,9.09c.8.31,1.87.51,2.51.21,2.67-1.22,5.17-2.61,8.26-4.22l-21.95-8.53c-1.42-.55-2.96-.51-4.24.12Z"/><path class="cls-13" d="M599.19,179.44c-.49-.7-1.02-1.39-1.54-2.07-18.72-24.19-41.2-44.61-64.79-63.82-16.65-13.55-33.99-26.06-51.87-37.73-.1-.07-.21-.13-.31-.2-21.1-13.77-42.97-26.38-65.34-38.17-.06-.04-.12-.07-.18-.1-.72-.38-1.5-.7-2.31-.94-1.24-.4-2.55-.62-3.8-.66-25.85-.69-51.7-1.27-77.55-1.85-.86-.02-1.75-.02-2.57.2-11.07,3.02-22.14,6.08-33.21,9.13-.02.25-.03.51-.04.77,6.1.29,12.2.58,18.3.89,29.7,1.47,59.4,2.92,89.09,4.46,1.44.08,2.97.48,4.28,1.13.19.1.37.2.55.3,17.02,9.88,34.22,19.47,50.9,29.9,38.57,24.1,74.6,51.51,106.72,83.86,1.26,1.26,2.83,2.34,4.44,3.11,3.78,1.81,7.67,3.38,11.51,5.05,5.88,2.54,11.75,5.08,17.82,7.71-.05-.61-.01-.84-.1-.97ZM408.3,48.65h-.01c-7.2-3.76-14.48-7.34-21.86-10.73,7.76,0,15.72-.09,23.68.07.71.02,1.44.16,2.16.39.72.23,1.44.55,2.1.9.19.1.37.21.55.31,21.57,12.54,43.12,25.11,64.59,37.83.1.06.2.13.3.2,1.51,1.02,2.73,2.91,3.42,4.63,1.96,4.83,3.51,9.83,4.96,15.01-26.02-17.45-52.34-34.26-79.89-48.61ZM579.56,166.89c-5.54-3.43-11.6-6.24-16.51-10.42-10.48-8.92-20.64-18.26-30.36-28.01-4.12-4.13-6.79-9.72-10.13-14.64.29-.17.58-.34.87-.51,17.59,13.63,35.1,27.36,50.63,43.4,1.19,1.23,2.38,2.51,3.3,3.95,1.08,1.7,1.86,3.6,2.78,5.41-.2.27-.39.55-.58.82Z"/><path class="cls-16" d="M488.19,97.26c-26.02-17.45-52.34-34.26-79.89-48.61h-.01c-7.2-3.76-14.48-7.34-21.86-10.73,7.76,0,15.72-.09,23.68.07.71.02,1.44.16,2.16.39.72.23,1.44.55,2.1.9.19.1.37.21.55.31,21.57,12.54,43.12,25.11,64.59,37.83.1.06.2.13.3.2,1.51,1.02,2.73,2.91,3.42,4.63,1.96,4.83,3.51,9.83,4.96,15.01Z"/><path class="cls-11" d="M580.14,166.07c-.2.27-.39.55-.58.82-5.54-3.43-11.6-6.24-16.51-10.42-10.48-8.92-20.64-18.26-30.36-28.01-4.12-4.13-6.79-9.72-10.13-14.64.29-.17.58-.34.87-.51,17.59,13.63,35.1,27.36,50.63,43.4,1.19,1.23,2.38,2.51,3.3,3.95,1.08,1.7,1.86,3.6,2.78,5.41Z"/></svg>