<?xml version="1.0" encoding="UTF-8"?><svg id="Layer_1" xmlns="http://www.w3.org/2000/svg" xmlns:xlink="http://www.w3.org/1999/xlink" viewBox="0 0 1133.66 309.65"><defs><style>.cls-1{fill:#13eff8;}.cls-1,.cls-2,.cls-3,.cls-4,.cls-5,.cls-6,.cls-7,.cls-8,.cls-9,.cls-10,.cls-11,.cls-12,.cls-13,.cls-14,.cls-15,.cls-16,.cls-17,.cls-18,.cls-19,.cls-20,.cls-21,.cls-22,.cls-23,.cls-24,.cls-25,.cls-26,.cls-27,.cls-28,.cls-29,.cls-30,.cls-31,.cls-32{stroke-width:0px;}.cls-2{fill:url(#radial-gradient-16);}.cls-3{fill:url(#linear-gradient);}.cls-4{fill:#002a30;}.cls-5{fill:url(#linear-gradient-6);}.cls-6{fill:url(#radial-gradient-8);}.cls-7{fill:#22f6ff;}.cls-8{fill:url(#radial-gradient-13);}.cls-9{fill:url(#radial-gradient-12);}.cls-10{fill:url(#linear-gradient-5);}.cls-11{fill:none;}.cls-12{fill:url(#radial-gradient-19);}.cls-13{fill:url(#radial-gradient-20);}.cls-14{fill:url(#linear-gradient-2);}.cls-15{fill:url(#radial-gradient-17);}.cls-16{fill:url(#radial-gradient-21);}.cls-17{fill:url(#radial-gradient-2);}.cls-18{fill:url(#radial-gradient-7);}.cls-19{fill:url(#linear-gradient-3);}.cls-20{fill:url(#radial-gradient-5);}.cls-21{fill:url(#radial-gradient);}.cls-22{fill:url(#radial-gradient-14);}.cls-23{fill:url(#radial-gradient-18);}.cls-24{fill:url(#radial-gradient-10);}.cls-25{fill:#fff;}.cls-26{fill:url(#radial-gradient-6);}.cls-27{fill:url(#radial-gradient-15);}.cls-28{fill:url(#radial-gradient-9);}.cls-29{fill:url(#radial-gradient-3);}.cls-30{fill:url(#radial-gradient-11);}.cls-31{fill:url(#linear-gradient-4);}.cls-32{fill:url(#radial-gradient-4);}</style><radialGradient id="radial-gradient" cx="837.01" cy="212.64" fx="837.01" fy="212.64" r="175.84" gradientUnits="userSpaceOnUse"><stop offset="0" stop-color="#0a616d"/><stop offset="1" stop-color="#191e33"/></radialGradient><radialGradient id="radial-gradient-2" cx="-175.28" cy="-167.87" fx="-175.28" fy="-167.87" r="1" gradientTransform="translate(42910.8 -40145.86) scale(240.07 -240.07)" gradientUnits="userSpaceOnUse"><stop offset="0" stop-color="#0a616d"/><stop offset="1" stop-color="#191e33"/></radialGradient><linearGradient id="linear-gradient" x1="529.37" y1="123.07" x2="940.82" y2="123.07" gradientUnits="userSpaceOnUse"><stop offset="0" stop-color="#191e33"/><stop offset=".11" stop-color="#192c41"/><stop offset=".32" stop-color="#1b5466"/><stop offset=".6" stop-color="#1d93a2"/><stop offset=".95" stop-color="#20eaf3"/><stop offset="1" stop-color="#21f6ff"/></linearGradient><radialGradient id="radial-gradient-3" cx="-175.28" cy="-167.87" fx="-175.28" fy="-167.87" r="1" gradientTransform="translate(42910.8 -40145.86) scale(240.07 -240.07)" gradientUnits="userSpaceOnUse"><stop offset="0" stop-color="#0a616d"/><stop offset="1" stop-color="#191e33"/></radialGradient><radialGradient id="radial-gradient-4" cx="-175.28" cy="-167.87" fx="-175.28" fy="-167.87" r="1" gradientTransform="translate(42910.8 -40145.86) scale(240.07 -240.07)" gradientUnits="userSpaceOnUse"><stop offset="0" stop-color="#0a616d"/><stop offset="1" stop-color="#191e33"/></radialGradient><radialGradient id="radial-gradient-5" cx="-175.28" cy="-167.87" fx="-175.28" fy="-167.87" r="1" gradientTransform="translate(42910.8 -40145.86) scale(240.07 -240.07)" gradientUnits="userSpaceOnUse"><stop offset="0" stop-color="#0a616d"/><stop offset="1" stop-color="#191e33"/></radialGradient><linearGradient id="linear-gradient-2" x1="744.63" y1="154.27" x2="899.16" y2="154.27" gradientUnits="userSpaceOnUse"><stop offset="0" stop-color="#0e3545"/><stop offset="1" stop-color="#17c3cd"/></linearGradient><radialGradient id="radial-gradient-6" cx="-175.28" cy="-167.87" fx="-175.28" fy="-167.87" r="1" gradientTransform="translate(42910.8 -40145.86) scale(240.07 -240.07)" gradientUnits="userSpaceOnUse"><stop offset="0" stop-color="#0a616d"/><stop offset="1" stop-color="#191e33"/></radialGradient><radialGradient id="radial-gradient-7" cx="1030.44" cy="146.85" fx="1030.44" fy="146.85" r="11.96" gradientUnits="userSpaceOnUse"><stop offset="0" stop-color="#fff"/><stop offset=".38" stop-color="#fdfeff"/><stop offset=".52" stop-color="#f6feff"/><stop offset=".62" stop-color="#eafeff"/><stop offset=".7" stop-color="#d9fdff"/><stop offset=".77" stop-color="#c3fcff"/><stop offset=".83" stop-color="#a8fbff"/><stop offset=".88" stop-color="#87faff"/><stop offset=".93" stop-color="#62f8ff"/><stop offset=".98" stop-color="#39f6ff"/><stop offset="1" stop-color="#22f6ff"/></radialGradient><radialGradient id="radial-gradient-8" cx="-174.68" cy="-167.9" fx="-174.68" fy="-167.9" r=".3" gradientTransform="translate(42910.82 -40145.88) scale(240.07 -240.07)" gradientUnits="userSpaceOnUse"><stop offset="0" stop-color="#0a616d"/><stop offset=".17" stop-color="#0c5361"/><stop offset=".71" stop-color="#152c3f"/><stop offset="1" stop-color="#191e33"/></radialGradient><linearGradient id="linear-gradient-3" x1="751.21" y1="138.02" x2="760.41" y2="138.02" xlink:href="#linear-gradient-2"/><linearGradient id="linear-gradient-4" x1="759.87" y1="138.77" x2="780.89" y2="138.77" xlink:href="#linear-gradient-2"/><radialGradient id="radial-gradient-9" cx="756.38" cy="137" fx="756.38" fy="137" r="14.36" gradientUnits="userSpaceOnUse"><stop offset="0" stop-color="#0a616d"/><stop offset="1" stop-color="#191e33"/></radialGradient><radialGradient id="radial-gradient-10" cx="771.69" cy="136.36" fx="771.69" fy="136.36" r="32.92" xlink:href="#radial-gradient-9"/><radialGradient id="radial-gradient-11" cx="1092.88" cy="186.31" fx="1092.88" fy="186.31" r="40.26" gradientUnits="userSpaceOnUse"><stop offset="0" stop-color="#d0c2c3"/><stop offset="1" stop-color="#fff"/></radialGradient><radialGradient id="radial-gradient-12" cx="-175.28" cy="-167.87" fx="-175.28" fy="-167.87" r="1" gradientTransform="translate(42910.8 -40145.86) scale(240.07 -240.07)" gradientUnits="userSpaceOnUse"><stop offset="0" stop-color="#0a616d"/><stop offset="1" stop-color="#191e33"/></radialGradient><radialGradient id="radial-gradient-13" cx="-175.28" cy="-167.87" fx="-175.28" fy="-167.87" r="1" gradientTransform="translate(42910.8 -40145.86) scale(240.07 -240.07)" gradientUnits="userSpaceOnUse"><stop offset="0" stop-color="#0a616d"/><stop offset="1" stop-color="#191e33"/></radialGradient><radialGradient id="radial-gradient-14" cx="-175.28" cy="-167.88" fx="-175.28" fy="-167.88" r="1" gradientTransform="translate(42910.8 -40145.86) scale(240.07 -240.07)" gradientUnits="userSpaceOnUse"><stop offset="0" stop-color="#0a616d"/><stop offset="1" stop-color="#191e33"/></radialGradient><radialGradient id="radial-gradient-15" cx="955.95" cy="60.68" fx="955.95" fy="60.68" r="41.65" gradientUnits="userSpaceOnUse"><stop offset="0" stop-color="#c9babe"/><stop offset="1" stop-color="#fff"/></radialGradient><radialGradient id="radial-gradient-16" cx="1090.67" cy="166.91" fx="1090.67" fy="166.91" r="27.81" gradientUnits="userSpaceOnUse"><stop offset="0" stop-color="#c9babe"/><stop offset="1" stop-color="#fff"/></radialGradient><radialGradient id="radial-gradient-17" cx="-179.68" cy="-169" fx="-179.68" fy="-169" r="1" gradientTransform="translate(41542.41 42481.78) rotate(2.47) scale(240.07)" xlink:href="#radial-gradient-5"/><linearGradient id="linear-gradient-5" x1="-.09" y1="190.22" x2="369.15" y2="190.22" gradientTransform="translate(-2.74 2.8) rotate(-.87)" gradientUnits="userSpaceOnUse"><stop offset="0" stop-color="#0a616d"/><stop offset=".02" stop-color="#0a5c69"/><stop offset=".12" stop-color="#104555"/><stop offset=".24" stop-color="#143345"/><stop offset=".38" stop-color="#16273b"/><stop offset=".57" stop-color="#182034"/><stop offset="1" stop-color="#191e33"/></linearGradient><radialGradient id="radial-gradient-18" cx="-61.55" cy="183.64" fx="-61.55" fy="183.64" r="140.36" gradientTransform="translate(352.29 4.1) rotate(-178.81) scale(1 -1)" gradientUnits="userSpaceOnUse"><stop offset="0" stop-color="#0a616d"/><stop offset="1" stop-color="#191e33"/></radialGradient><radialGradient id="radial-gradient-19" cx="448.88" cy="196.79" fx="448.88" fy="196.79" r="8.93" gradientTransform="matrix(1,0,0,1,0,0)" xlink:href="#radial-gradient-4"/><radialGradient id="radial-gradient-20" cx="544.71" cy="114.34" fx="544.71" fy="114.34" r="10.86" gradientTransform="matrix(1,0,0,1,0,0)" xlink:href="#radial-gradient-4"/><radialGradient id="radial-gradient-21" cx="628.68" cy="163.03" fx="628.68" fy="163.03" r="365.15" gradientTransform="matrix(1,0,0,1,0,0)" xlink:href="#radial-gradient-8"/><linearGradient id="linear-gradient-6" x1="239.35" y1="136.81" x2="875.14" y2="136.81" gradientUnits="userSpaceOnUse"><stop offset="0" stop-color="#009499"/><stop offset="1" stop-color="#fff"/></linearGradient></defs><path class="cls-21" d="M452.28,180.61l323.25-1.8c11.76.34,22.79,1.2,34.17,3.37,9.6,1.83,19.09,4.2,28.64,6.33.06.21.13.43.19.65-6.27,2.71-12.86,4.88-18.75,8.26-9.43,5.39-19.41,3.75-29.3,3.4-16.04-.58-32.07-1.55-48.11-2.3-25.09-1.18-50.19-1.99-75.24-3.68l-214.85-14.23Z"/><path class="cls-17" d="M997.96,217.52c-9.62-3.33-19.24-6.68-28.9-9.9-.94-.31-2.31-.08-3.23.38-6.24,3.16-12.36,6.55-18.61,9.68-32.53,16.27-65.07,32.48-97.64,48.66-1.38.69-3.08,1.28-4.55,1.13-6.1-.63-12.16-1.57-18.24-2.37-17.6-2.34-35.21-4.6-52.8-7.04-3.89-.54-7.99-1.09-11.49-2.71-10.63-4.94-20.99-10.46-31.51-15.66-13.16-6.51-25.92-13.68-41-15.7-14.54-1.94-28.87-5.55-44.18-8.6,1.69.97,2.59,1.54,3.53,2.02,35.61,18.23,71.22,36.46,106.86,54.64,1.89.96,3.96,1.69,6.04,2.15,19.09,4.27,38.21,8.44,57.31,12.67,18.26,4.05,36.44,8.48,54.79,12.09,12.55,2.47,25.32,3.83,37.99,5.64,12,1.71,24,3.36,36,5.04.21-.24.43-.48.64-.72-.59-.28-1.26-.46-1.76-.86-14.08-11.03-28.13-22.1-42.23-33.1-1.14-.89-2.61-1.51-4.02-1.89-4.8-1.28-9.64-2.41-15.43-3.83,38.35-17.21,75.82-34.03,113.51-50.94-.57-.43-.79-.7-1.07-.79Z"/><path class="cls-11" d="M854.5,166.32c4.06.8,8.11,1.6,12.17,2.37-4.06-.77-8.11-1.58-12.17-2.37Z"/><path class="cls-11" d="M878.14,170.64c-.22-.02-.45-.04-.68-.06-.22-.03-.45-.05-.68-.09-.22-.02-.45-.06-.67-.09-.23-.04-.45-.07-.68-.11.43.07.87.13,1.3.19.03,0,.05,0,.08.01.45.06.89.11,1.33.15Z"/><path class="cls-11" d="M746.34,139.31c.12-.11.29-.24.49-.37-.2.14-.37.27-.49.37Z"/><path class="cls-11" d="M767.49,147.22c1.41.32,2.86.64,4.34.98-1.48-.33-2.93-.66-4.34-.98Z"/><path class="cls-11" d="M1066.66,153.2c.21.19.42.38.63.58-.13-.13-.26-.24-.39-.35-.08-.08-.16-.15-.24-.23Z"/><path class="cls-11" d="M1075.74,161.73s.09.09.14.14c-.05-.04-.09-.09-.14-.13-.15-.15-.29-.29-.44-.43.14.14.29.28.44.42Z"/><path class="cls-3" d="M939.78,132.47c-10.34-.47-20.67-.95-31.01-1.42-116.56-5.34-233.1-10.68-349.65-16.03-9.92-.45-19.83-.91-29.75-1.36,10.23.2,20.45.39,30.68.59,118.34,2.28,236.69,4.57,355.03,6.85,5.3.11,10.6.21,15.9.31.84.02,1.63.39,2.19,1.02,2.47,2.79,4.94,5.59,7.4,8.38.59.66.09,1.7-.79,1.66Z"/><path class="cls-7" d="M930.88,143.89c-3.03.5-8.89.54-14.83-2.74-4.14-2.29-6.39-5.57-7.41-7.31-5.72-.15-11.43-.3-17.15-.46,3.89,7.31,7.99,12.76,11.12,16.46,5.83,6.9,9.49,9.15,11.12,10.06,2.43,1.35,6.01,3.28,11.12,3.66,5.02.37,9-.95,11.12-1.83,9.25-4.14,19.25-9.24,29.66-15.54,6.01-3.64,12.32-6.47,16.68-10.97.33-.34,1.11-1.77.93-3.66-.2-2.1-1.53-3.36-1.85-3.66-4.48-3.62-9.42-7.31-14.83-10.97-9.44-6.39-18.55-11.48-26.88-15.54-2.58-1.3-9.72-4.46-18.54-2.74-4.04.79-7.16,2.35-9.27,3.66-2.91,2.26-6.06,4.98-9.27,8.23-2.48,2.52-4.63,4.99-6.49,7.31,6.33.15,12.67.3,19,.46,1.71-1.8,3.39-2.95,4.63-3.66,1.46-.83,2.76-1.58,4.63-1.83,2.48-.32,4.56.33,5.56.91,5.21,3.06,14.83,10.06,17.61,15.54,1.31,2.58-1.54,6.09-2.78,7.31-5.56,5.49-10.93,6.83-13.9,7.31Z"/><path class="cls-29" d="M726.58,226.21c17.16,8.46,34.32,16.91,51.5,25.32.93.46,2.05.62,3.1.73,13.7,1.47,27.39,2.94,41.1,4.3,2.21.22,4.71.57,6.67-.19,5.88-2.29,11.56-5.11,17.32-7.72.06-.4.12-.8.18-1.19-6.8-1.82-13.52-4.06-20.41-5.37-24.39-4.64-48.82-9.05-73.27-13.35-8.88-1.56-17.85-2.59-26.78-3.86.12.93.32,1.21.59,1.34Z"/><path class="cls-32" d="M722.55,44.61c19.29-.32,38.58-.54,57.87-1.03,4.57-.12,9.29-.53,13.66-1.78,19.22-5.5,38.32-11.43,57.51-17.03,3.14-.92,6.54-1.36,9.82-1.34,17.03.1,34.06.23,51.08.74,16.35.49,32.87-.99,48.98,2.48,8.14,1.76,14.22-.74,20.42-5.3,6.53-4.8,13.42-9.09,20.84-14.06-1.38-.08-1.87-.14-2.37-.14-51.19.26-102.38.49-153.58.86-5.34.04-10.94,0-15.96,1.54-30.83,9.45-61.52,19.34-92.26,29.08-5.78,1.83-11.56,3.64-17.34,5.46.04.15.07.29.11.44.41.03.81.09,1.22.08Z"/><path class="cls-20" d="M806.03,4.55c-1.48-1.59-2.37-2.89-3.57-3.72-.86-.59-2.34-1.05-3.22-.72-19.46,7.18-38.88,14.48-58.3,21.77-5.82,2.19-11.62,4.44-17.43,6.66.07.2.14.4.21.59,27.23-8.13,54.46-16.26,82.31-24.58Z"/><path class="cls-14" d="M899.16,163.83c-1.39.56-2.75,1.14-4.08,1.72-1.18.51-2.35,1.02-3.51,1.51-1.16.49-2.31.97-3.46,1.42-1.83.71-3.67,1.36-5.54,1.88-.51.14-1.05.22-1.6.28-.91.09-1.86.08-2.83,0-.45-.04-.9-.09-1.36-.15-.45-.06-.9-.13-1.35-.2-.91-.14-1.8-.32-2.67-.47-2.03-.37-4.06-.74-6.09-1.13-4.06-.77-8.11-1.58-12.17-2.37-2.03-.39-4.05-.79-6.08-1.18-1.81-.34-3.62-.69-5.43-1.02-.44-.08-3.39-.73-8.02-1.76-.55-.12-1.12-.25-1.72-.38-.26-.06-.53-.12-.8-.18-.95-.21-1.95-.43-3-.67-.58-.13-1.17-.26-1.78-.4-.6-.13-1.22-.27-1.85-.41-.63-.14-1.27-.29-1.93-.43-.17-.04-.33-.07-.5-.11-.49-.11-1-.23-1.51-.34-4.07-.91-8.52-1.91-13.18-2.95-1.14-.26-2.29-.52-3.46-.78-.42-.09-.84-.19-1.26-.28-1.09-.25-2.19-.5-3.29-.74-2.04-.46-4.09-.92-6.14-1.38-.68-.16-1.37-.31-2.06-.46-3.04-.69-6.08-1.37-9.07-2.04-.8-.18-1.59-.36-2.38-.54-1.58-.35-3.14-.7-4.67-1.05-1.54-.35-3.05-.69-4.54-1.02-1.48-.34-2.93-.66-4.34-.98-.71-.16-1.4-.31-2.09-.47-9.29-2.09-16.68-3.75-19.99-4.5-.1-.02-.19-.06-.27-.1-.57-.31-.7-1.15-.17-1.62l1.37-1.22c.12-.1.29-.23.49-.37.2-.13.43-.27.68-.41.71-.39,1.53-.74,2-.7.1.01.2.01.31.02.22.02.46.03.72.05s.54.04.84.06c.44.04.94.08,1.47.11.18.01.36.02.55.04.37.03.77.06,1.18.09.41.03.84.07,1.28.1.22.01.45.03.68.05.46.03.93.07,1.42.11.73.06,1.5.12,2.3.18,1.07.08,2.19.17,3.36.26.59.04,1.19.09,1.8.14.45.04.92.08,1.39.11.47.04.94.07,1.42.11.64.05,1.3.1,1.96.15.66.05,1.33.11,2.01.16,15,1.17,34.15,2.69,48.65,3.85.49.04.97.08,1.44.11,1.7.14,3.33.27,4.87.39.18.02.37.03.55.05.85.07,1.68.14,2.47.19.77.07,1.51.13,2.21.18.92.08,1.78.15,2.59.21.18.02.36.03.54.05,1.25.1,2.36.19,3.29.26.53.05,1.01.09,1.43.12,1.12.09,1.81.15,2.01.17,7.43.67,14.86,1.32,22.3,1.96,7.14.62,14.28,1.23,21.42,1.88.86.08,1.93.35,2.64.84.08.06.16.11.22.16.05.05.09.1.14.14.04.05.09.09.13.14,3.37,4.3,6.54,8.76,10.06,13.56Z"/><path class="cls-26" d="M707.76,210.33c8.4,1.83,16.81,3.66,25.21,5.49-7.11-8.38-16.16-6.92-25.21-5.49Z"/><path class="cls-18" d="M1043.97,156.08c-.17.22-.34.45-.51.67-.06.09-.13.17-.19.26-7.9-4.95-15.87-9.79-23.62-14.95-.12-.08-.23-.19-.35-.29-.37-.35-.67-.81-.94-1.33-.11-.21-.22-.43-.32-.66-.21-.46-.4-.95-.6-1.42-.17-.39-.34-.78-.53-1.13.11-.1.22-.2.33-.3.09-.08.18-.16.27-.24.79.37,1.63.66,2.36,1.12.82.51,1.64,1.02,2.45,1.53,3.94,2.45,7.89,4.88,11.75,7.44,1.33.88,2.66,1.78,3.97,2.7,2.36,1.66,3.98,4.37,5.93,6.6Z"/><path class="cls-7" d="M1038.04,149.48c-1.31-.92-2.64-1.82-3.97-2.7-3.86-2.56-7.81-4.99-11.75-7.44-.81-.51-1.63-1.02-2.45-1.53-.73-.46-1.57-.75-2.36-1.12-.09.08-.18.16-.27.24-.11.1-.22.2-.33.3.19.35.36.74.53,1.13.2.47.39.96.6,1.42.1.23.21.45.32.66.27.52.57.98.94,1.33.12.1.23.21.35.29,7.75,5.16,15.72,10,23.62,14.95.06-.09.13-.17.19-.26.17-.22.34-.45.51-.67-1.95-2.23-3.57-4.94-5.93-6.6ZM1043.4,156.43l-.13.17-.05.06v.02c-1.96-1.22-3.91-2.43-5.86-3.65-5.8-3.6-11.79-7.33-17.57-11.18-.1-.07-.19-.15-.31-.27-.7-.65-1.16-1.75-1.6-2.82l-.21-.5c-.14-.32-.28-.65-.45-.97l.19-.17.14-.13c.21.09.42.18.63.27.53.22,1.08.46,1.56.76.59.38,1.19.75,1.79,1.12l.66.41,1.72,1.07c3.3,2.06,6.72,4.18,10.02,6.37,1.09.72,2.53,1.68,3.97,2.69,1.59,1.13,2.87,2.78,4.12,4.38.52.68,1.07,1.38,1.63,2.03-.08.11-.17.22-.25.34Z"/><path class="cls-6" d="M1066.64,153.19c.09.08.17.15.26.24-.08-.08-.16-.15-.24-.23-.01-.01-.02-.01-.02-.01ZM1075.74,161.74c.05.04.09.09.14.13-.05-.05-.1-.09-.14-.14h0ZM1066.64,153.19c.09.08.17.15.26.24.13.11.26.22.39.35-.21-.2-.42-.39-.63-.58-.01-.01-.02-.01-.02-.01ZM876.78,170.49c.23.04.46.06.68.09-.45-.05-.9-.11-1.35-.18.22.03.45.07.67.09Z"/><path class="cls-19" d="M751.38,137.96c.44.03.94.07,1.47.11-.53-.03-1.03-.07-1.47-.11Z"/><path class="cls-31" d="M760.26,138.64c1.07.08,2.19.16,3.36.26-1.17-.09-2.29-.18-3.36-.26Z"/><path class="cls-28" d="M751.38,137.96c.44.03.94.07,1.47.11-.53-.03-1.03-.07-1.47-.11Z"/><path class="cls-24" d="M760.26,138.64c1.07.08,2.19.16,3.36.26-1.17-.09-2.29-.18-3.36-.26Z"/><path class="cls-30" d="M1126.3,219.6c-6.01-8.88-16.93-22.05-28.64-34.97-1.05-1.16-2.11-2.32-3.16-3.47-.54-.58-1.06-1.15-1.59-1.71-.39-.43-.79-.86-1.19-1.28-.53-.58-1.07-1.15-1.61-1.72-.66-.71-1.32-1.4-1.98-2.1-.53-.56-1.05-1.11-1.58-1.66-.26-.27-.52-.54-.78-.81-.8-.83-1.59-1.65-2.38-2.46-.52-.54-1.04-1.07-1.56-1.6-.52-.53-1.04-1.05-1.55-1.57-.52-.52-1.03-1.04-1.54-1.54-.5-.51-1.01-1.01-1.51-1.51-.45-.45-.9-.89-1.35-1.33-.05-.04-.09-.09-.14-.13-.15-.15-.29-.29-.44-.43-.1-.11-.21-.21-.31-.3-.24-.24-.49-.47-.73-.71-.37-.36-.73-.71-1.1-1.06-.17-.17-.34-.33-.51-.49-.18-.17-.36-.34-.54-.52-.23-.21-.46-.43-.68-.64-.32-.29-.63-.58-.93-.87-.15-.14-.31-.29-.46-.43-.42-.39-.84-.78-1.25-1.16-.05-.04-.1-.09-.15-.14-.23-.2-.46-.41-.69-.62-.21-.19-.42-.39-.64-.58-.01-.01-.01-.02-.02-.01-.21-.2-.42-.39-.63-.58-.01-.01-.02-.01-.02-.01-1.73-1.55-3.36-2.95-4.87-4.17-.19-.16-.38-.31-.56-.46-.03-.02-.05-.05-.08-.06-.06-.06-.12-.1-.18-.15-.09-.07-.18-.14-.27-.21-.14-.11-.27-.22-.41-.33-.86-.66-1.67-1.27-2.42-1.8-.07-.06-.15-.11-.22-.16-.46-.32-.9-.61-1.32-.88-.14-.09-.28-.18-.42-.26-.13-.08-.27-.16-.4-.24-.07-.04-.13-.08-.2-.11-.06-.04-.13-.08-.19-.11-.13-.07-.25-.14-.37-.2,3.85,4.05,7.7,8.08,11.54,12.11,1.94,2.04,3.89,4.08,5.82,6.13,5.56,5.89,9.73,12.48,12,20.1.54,1.8.97,3.66,1.29,5.58.34,2.05.73,4.08,1.16,6.12.75,3.65,1.62,7.27,2.59,10.86.04.16.1.32.16.48.25.68.63,1.38,1.11,2.01.58.77,1.3,1.44,2.04,1.84,9.95,5.29,19.98,10.41,30.02,15.53,1.84.94,3.68,1.88,5.52,2.82.22.11.44.21.68.29.03.01.07.02.1.03.68.22,1.45.37,2.28.62-.33-1.84-2.04-4.97-4.74-8.97Z"/><path class="cls-9" d="M926.65,220.13c-1.02.17-2.15.12-3.05.56-23.6,11.46-47.18,22.96-70.74,34.49-1.77.87-3.45,1.92-5.17,2.88.19.36.37.73.56,1.09,26.24-12.59,52.48-25.18,78.72-37.77-.11-.41-.21-.83-.32-1.24Z"/><path class="cls-8" d="M671.13,241.63c.16.14.29.32.47.42,25.61,14.56,51.21,29.12,76.85,43.62.7.4,1.9.51,2.6.19,2.06-.96,3.99-2.21,6.46-3.62-29.09-13.82-57.65-27.39-86.21-40.96-.06.12-.11.23-.17.35Z"/><path class="cls-1" d="M955.09,215.71c-1.67.84-4.17,2.11-7.04,3.59l21.25,8.88c.74.29,1.76.48,2.45.2,2.87-1.16,5.67-2.51,9.19-4.11l-21.41-8.75c-1.43-.59-3.05-.52-4.43.18Z"/><path class="cls-1" d="M943.48,221.96c-1.6.81-4,2.03-6.76,3.45l20.39,8.52c.71.28,1.69.46,2.35.19,2.76-1.11,5.44-2.41,8.82-3.94l-20.55-8.4c-1.38-.56-2.93-.5-4.25.17Z"/><path class="cls-1" d="M966.74,210.16c-1.57.76-3.95,1.93-6.75,3.32l22.17,9.09c.8.31,1.87.51,2.51.21,2.67-1.22,5.17-2.61,8.26-4.22l-21.95-8.53c-1.42-.55-2.96-.51-4.24.12Z"/><path class="cls-22" d="M1128.56,179.44c-.49-.7-1.02-1.39-1.54-2.07-18.72-24.19-41.2-44.61-64.79-63.82-16.65-13.55-33.99-26.06-51.87-37.73-.1-.07-.21-.13-.31-.2-21.1-13.77-42.97-26.38-65.34-38.17-.06-.04-.12-.07-.18-.1-.72-.38-1.5-.7-2.31-.94-1.24-.4-2.55-.62-3.8-.66-25.85-.69-51.7-1.27-77.55-1.85-.86-.02-1.75-.02-2.57.2-11.07,3.02-22.14,6.08-33.21,9.13-.02.25-.03.51-.04.77,6.1.29,12.2.58,18.3.89,29.7,1.47,59.4,2.92,89.09,4.46,1.44.08,2.97.48,4.28,1.13.19.1.37.2.55.3,17.02,9.88,34.22,19.47,50.9,29.9,38.57,24.1,74.6,51.51,106.72,83.86,1.26,1.26,2.83,2.34,4.44,3.11,3.78,1.81,7.67,3.38,11.51,5.05,5.88,2.54,11.75,5.08,17.82,7.71-.05-.61-.01-.84-.1-.97ZM937.67,48.65h-.01c-7.2-3.76-14.48-7.34-21.86-10.73,7.76,0,15.72-.09,23.68.07.71.02,1.44.16,2.16.39.72.23,1.44.55,2.1.9.19.1.37.21.55.31,21.57,12.54,43.12,25.11,64.59,37.83.1.06.2.13.3.2,1.51,1.02,2.73,2.91,3.42,4.63,1.96,4.83,3.51,9.83,4.96,15.01-26.02-17.45-52.34-34.26-79.89-48.61ZM1108.93,166.89c-5.54-3.43-11.6-6.24-16.51-10.42-10.48-8.92-20.64-18.26-30.36-28.01-4.12-4.13-6.79-9.72-10.13-14.64.29-.17.58-.34.87-.51,17.59,13.63,35.1,27.36,50.63,43.4,1.19,1.23,2.38,2.51,3.3,3.95,1.08,1.7,1.86,3.6,2.78,5.41-.2.27-.39.55-.58.82Z"/><path class="cls-27" d="M1017.56,97.26c-26.02-17.45-52.34-34.26-79.89-48.61h-.01c-7.2-3.76-14.48-7.34-21.86-10.73,7.76,0,15.72-.09,23.68.07.71.02,1.44.16,2.16.39.72.23,1.44.55,2.1.9.19.1.37.21.55.31,21.57,12.54,43.12,25.11,64.59,37.83.1.06.2.13.3.2,1.51,1.02,2.73,2.91,3.42,4.63,1.96,4.83,3.51,9.83,4.96,15.01Z"/><path class="cls-2" d="M1109.51,166.07c-.2.27-.39.55-.58.82-5.54-3.43-11.6-6.24-16.51-10.42-10.48-8.92-20.64-18.26-30.36-28.01-4.12-4.13-6.79-9.72-10.13-14.64.29-.17.58-.34.87-.51,17.59,13.63,35.1,27.36,50.63,43.4,1.19,1.23,2.38,2.51,3.3,3.95,1.08,1.7,1.86,3.6,2.78,5.41Z"/><path class="cls-15" d="M144.74,243.41c-19.13-8.01-38.22-16.14-57.31-24.26-5.72-2.43-11.42-4.93-17.12-7.4.08-.19.16-.39.24-.58,26.85,9.3,61.26,19.94,88.72,29.45l-14.53,2.8Z"/><path class="cls-10" d="M19.01,178.89c-.83-.03-1.82-.07-2.5.31-5.27,3.06-10.5,6.21-16.51,9.79,4.9.57,8.9,1.13,12.92,1.49,19.41,1.71,38.82,3.69,58.27,4.99,41.29,2.7,82.57,5.67,123.9,7.31,26.57,1.05,53.23.45,79.82-.43,21.69-.75,43.35-2.99,65.03-4.7,1.89-.16,27.38-17.15,29.2-17.84l-39.19.31-310.94-1.23Z"/><path class="cls-23" d="M389.34,180.31c-21.49,16.2-47.37,35.31-49.5,36.43-.19.08-.37.18-.56.26-1.34.6-2.88.93-4.32.95-29.74.26-59.48.43-89.21.62-6.11.05-12.21.08-18.32.1,0,.26,0,.52,0,.77,10.92,3.53,21.85,7.06,32.78,10.56.82.25,1.7.29,2.56.31,25.85.53,51.7,1.06,77.56,1.49,1.25.02,2.57-.16,3.82-.5.83-.2,1.62-.49,2.35-.84.07-.02.13-.05.19-.09,4.53-2.14,9.03-4.31,13.51-6.52l54.58-43.7-25.45.16Z"/><polygon class="cls-12" points="461.48 195.96 459.84 197.32 436.28 197.61 461.48 195.96"/><path class="cls-13" d="M560.05,114.25l-.93.77c-9.92-.45-19.83-.91-29.75-1.36,10.23.2,20.45.39,30.68.59Z"/><path class="cls-16" d="M560.05,114.25l48.55-40.25c35.9.09,71.81.13,107.71.29,1.48.01,3.34.83,4.38,1.9,9.38,9.66,18.6,19.5,27.95,29.2.94.98,2.43,1.94,3.72,2.02,21.07,1.31,42.15,2.5,63.24,3.68,22.69,1.28,45.4,2.46,68.09,3.85,2.71.17,4.19-.76,5.96-2.63,5.45-5.77,10.84-11.7,16.94-16.73,7.37-6.08,15.61-6.39,24.43-2.13,9.71,4.69,19.07,9.96,28.21,15.56.59.35,1.17.71,1.75,1.07,8.47,5.23,16.77,10.74,25.04,16.34,4.47,3.03,5.43,6.82,6.26,10.48-2.49.91-4.66,1.57-6.71,2.49-1.55.71-2.94,1.77-4.43,2.64-14.2,8.35-28.62,16.18-44.03,22.19-.65.25-1.3.49-1.94.69-.01,0-.03.01-.04.01-10.4,3.42-19.53,1.35-28.04-5.8-6.85-5.75-15.41-17.86-19.84-25.51l-140.99-6.54c-1.38-.08-2.93-.31-4.14.18-10.12,4.13-20.18,8.41-30.26,12.64,52.1,18.81,105.96,29.8,160.61,40.47-1.07.74-1.39,1.03-1.76,1.2-17.27,8.27-34.53,16.58-51.86,24.74-1.86.88-4.12,1.3-6.19,1.31-17.9.14-35.79.14-53.69.18h-3.44c-.09.42-.17.84-.26,1.26,1.33.37,2.65.95,4,1.07,11.47,1.04,22.95,2.02,34.43,2.99,16.53,1.4,33.06,2.8,49.59,4.12,1.44.12,3.06-.11,4.36-.7,11.36-5.17,22.67-10.43,33.99-15.69,33.26-15.46,66.51-30.94,99.8-46.32,1.06-.49,2.8-.53,3.81.01,13.77,7.33,27.47,14.78,41.16,22.25,1,.55,2.08,1.33,2.61,2.29,2.35,4.18,4.51,8.47,6.94,13.12-1.13-.31-1.84-.46-2.51-.7-7.71-2.72-15.53-5.15-23.06-8.29-5.49-2.28-10.43-2.4-15.96-.09-8.11,3.38-16.51,6.07-25.3,9.24,1.45.6,2.31,1,3.21,1.32,28.36,10.03,56.75,20,85.07,30.16,3.98,1.42,7.47,1.69,11.3-.3,3.14-1.62,6.51-2.85,9.88-3.93,1.5-.48,3.38-.56,4.88-.11,4.52,1.37,8.94,3.07,13.39,4.67,10.22,3.66,20.42,7.37,30.65,11,1.4.49,2.91,1.48,4.3-.43,2.34-3.21,2.49-6.45.28-9.84-20.34-31.16-45.8-57.66-74.55-81.05-37.51-30.51-78.59-55.48-121.58-77.41-2.24-1.14-4.82-1.96-7.31-2.23-21.61-2.32-43.2-5.16-64.87-6.51-26.55-1.64-53.19-2.97-79.77-2.66-41.36.48-82.71,2.29-124.06,3.85-19.48.74-38.93,2.19-58.39,3.36l-37.44,6.01-201.84,175.36s-31.99-1.14-48.35-1.35c-17.02-.23-34.05-.84-51.06-1.47-3.28-.12-6.66-.71-9.76-1.76-18.93-6.42-37.75-13.17-56.72-19.49-4.31-1.44-9-2.05-13.57-2.36-19.24-1.32-38.51-2.38-57.77-3.53-.4-.02-.81.02-1.22.03-.04.14-.08.29-.12.43,5.69,2.07,11.39,4.13,17.09,6.2,30.29,11.06,60.52,22.26,90.91,33.03,4.95,1.75,10.55,1.95,15.88,2.22,51.13,2.57,123.27,15.52,123.27,15.52l88.98-73.76,1.64-1.36,97.64-80.94.93-.77ZM895.08,165.55c-1.18.51-2.35,1.02-3.51,1.51-1.16.49-2.31.97-3.46,1.42-1.83.71-3.67,1.36-5.54,1.88-.51.14-1.05.22-1.6.28-.91.09-1.86.08-2.83,0-.22-.02-.45-.04-.68-.06-.45-.05-.9-.11-1.35-.18-.23-.04-.45-.07-.68-.11-.91-.14-1.8-.32-2.67-.47-2.03-.37-4.06-.74-6.09-1.13-4.06-.77-8.11-1.57-12.17-2.37-2.03-.39-4.05-.79-6.08-1.18-1.81-.34-3.62-.69-5.43-1.02-.44-.08-3.39-.73-8.02-1.76-.55-.12-1.12-.25-1.72-.38-.26-.06-.53-.12-.8-.18-.95-.21-1.95-.43-3-.67-.58-.13-1.17-.26-1.78-.4-.6-.13-1.22-.27-1.85-.41-.63-.14-1.27-.28-1.93-.43-.17-.04-.33-.07-.5-.11-.49-.11-1-.23-1.51-.34-4.07-.91-8.52-1.91-13.18-2.95-1.14-.26-2.3-.52-3.46-.78-.42-.09-.84-.19-1.26-.28-1.09-.24-2.19-.49-3.29-.74-2.04-.46-4.09-.92-6.14-1.38-.69-.15-1.37-.31-2.06-.46-3.04-.69-6.08-1.37-9.07-2.04-.79-.18-1.59-.36-2.38-.54-1.58-.35-3.14-.7-4.67-1.05-1.54-.34-3.05-.69-4.54-1.02-1.48-.33-2.93-.66-4.34-.98-.71-.16-1.4-.31-2.09-.47-9.29-2.09-16.68-3.75-19.99-4.5-.1-.02-.19-.06-.27-.1-.57-.31-.7-1.15-.17-1.62l1.37-1.22c.12-.11.29-.24.49-.37.2-.13.43-.27.68-.41.71-.39,1.53-.74,2-.7.1.01.2.01.31.02.22.02.46.03.72.05s.54.04.84.06c.44.03.94.07,1.47.11.18.01.36.02.55.04.37.03.77.06,1.18.09.41.03.84.06,1.28.1.22.01.45.03.68.05.45.03.93.07,1.42.11.73.06,1.5.12,2.3.18,1.07.08,2.19.16,3.36.26.59.04,1.19.09,1.8.14.45.03.92.07,1.39.11.47.03.94.07,1.42.11.64.05,1.3.1,1.96.15.66.05,1.33.11,2.01.16,15,1.17,34.15,2.69,48.65,3.85.49.04.97.08,1.44.11,1.7.14,3.33.27,4.87.39.18.02.37.03.55.05.85.07,1.68.14,2.47.19.77.07,1.5.13,2.21.18.92.08,1.78.15,2.59.21.18.02.36.03.54.05,1.25.1,2.36.19,3.29.26.53.05,1.01.09,1.43.12,1.12.09,1.81.15,2.01.17,7.43.67,14.86,1.32,22.3,1.96,7.14.62,14.28,1.23,21.42,1.88.86.08,1.93.35,2.64.84.08.06.16.11.22.16.05.05.09.1.14.14.04.05.09.09.13.14,3.37,4.3,6.54,8.76,10.06,13.56-1.39.56-2.75,1.14-4.08,1.72ZM1043.46,156.75c-.06.09-.13.17-.19.26-7.9-4.95-15.87-9.79-23.62-14.95-.12-.08-.23-.19-.35-.29-.37-.35-.67-.81-.94-1.33-.11-.21-.22-.43-.32-.66-.21-.46-.4-.95-.6-1.42-.17-.39-.34-.78-.53-1.13.11-.1.22-.2.33-.3.09-.08.18-.16.27-.24.79.37,1.63.66,2.36,1.12.82.51,1.64,1.02,2.45,1.53,3.94,2.45,7.89,4.88,11.75,7.44,1.33.88,2.66,1.78,3.97,2.7,2.36,1.66,3.98,4.37,5.93,6.6-.17.22-.34.45-.51.67ZM1128.76,227.95s-.07-.02-.1-.03c-.24-.08-.46-.18-.68-.29-1.84-.94-3.68-1.88-5.52-2.82-10.04-5.12-20.07-10.24-30.02-15.53-.74-.4-1.46-1.07-2.04-1.84-.48-.63-.86-1.33-1.11-2.01-.06-.16-.12-.32-.16-.48-.97-3.59-1.84-7.21-2.59-10.86-.43-2.04-.83-4.08-1.16-6.12-.32-1.92-.75-3.78-1.29-5.58-2.27-7.62-6.44-14.21-12-20.1-1.93-2.05-3.88-4.09-5.82-6.13-3.84-4.03-7.69-8.06-11.54-12.11.12.06.25.13.37.2.06.03.13.07.19.11.07.03.13.07.2.11.13.08.27.16.4.24.14.08.28.17.42.26.42.27.86.56,1.32.88.07.05.14.1.22.16.75.53,1.56,1.14,2.42,1.8.13.11.27.21.41.33.09.07.18.14.27.21.06.05.12.09.18.15.03,0,.05.04.08.06.18.15.37.3.56.46,1.51,1.22,3.14,2.62,4.87,4.17,0,0,.01,0,.02.01.21.19.42.38.63.58.01-.01.01,0,.02.01.21.19.42.38.64.58.23.21.46.42.69.62.05.05.1.1.15.14.41.38.83.77,1.25,1.16.15.14.31.28.46.43.3.29.61.58.93.87.22.21.45.43.68.64.18.17.36.35.54.52.17.16.34.32.51.49.36.34.73.7,1.1,1.06.24.23.48.47.73.71.1.09.21.19.31.3.14.14.29.28.44.42.04.05.09.09.14.14.45.43.9.88,1.35,1.33.5.5,1.01,1,1.51,1.51l1.54,1.54c.51.52,1.03,1.04,1.55,1.57.52.53,1.04,1.06,1.56,1.6.79.81,1.58,1.63,2.38,2.46.26.27.52.54.78.81.53.55,1.06,1.1,1.58,1.66.66.7,1.32,1.39,1.98,2.1.54.57,1.08,1.14,1.61,1.72.4.42.79.85,1.19,1.28.54.57,1.06,1.14,1.59,1.71,1.05,1.15,2.11,2.31,3.16,3.47,11.71,12.92,22.63,26.09,28.64,34.97,2.7,4,4.41,7.13,4.74,8.97-.83-.25-1.6-.4-2.28-.62Z"/><path class="cls-4" d="M72.31,99.91h-12.7c-1.1,0-2,.9-2,2v69.8c0,1.1.9,2,2,2h12.7c1.1,0,2-.9,2-2v-69.8c0-1.1-.9-2-2-2ZM72.31,171.71h-12.7v-69.8h12.7v69.8Z"/><path class="cls-4" d="M151.52,99.91h-12.89c-1.1,0-2,.9-2,2v45.51l-39.32-46.79c-.38-.45-.94-.71-1.53-.71h-14.06c-1.1,0-2,.9-2,2v69.8c0,1.1.9,2,2,2h12.8c1.1,0,2-.9,2-2v-45.6l39.42,46.89c.38.45.94.71,1.53.71h14.06c1.1,0,2-.9,2-2v-69.8c0-1.1-.9-2-2-2ZM151.52,171.71h-14.06l-42.95-51.09v51.09h-12.8v-69.8h14.06l42.85,51v-51h12.89v69.8Z"/><path class="cls-4" d="M231.19,166.74l-25.19-29.93,25.1-29.93c.3-.36.47-.82.47-1.29v-3.68c0-1.1-.9-2-2-2h-13.96c-.59,0-1.15.26-1.53.71l-23.25,27.69h-13.45v-26.41c0-1.1-.9-2-2-2h-12.89c-1.1,0-2,.9-2,2v69.8c0,1.1.9,2,2,2h12.89c1.1,0,2-.9,2-2v-26.41h13.45l23.25,27.69c.38.45.94.71,1.53.71h14.06c1.1,0,2-.9,2-2v-3.68c0-.47-.17-.93-.47-1.29ZM229.66,171.71h-14.06l-23.85-28.41h-16.38v28.41h-12.89v-69.8h12.89v28.41h16.38l23.85-28.41h13.96v3.68l-26.18,31.22,26.27,31.22v3.68Z"/><rect class="cls-25" x="59.61" y="101.91" width="12.7" height="69.8"/><polygon class="cls-25" points="138.62 152.9 95.77 101.91 81.71 101.91 81.71 171.71 94.51 171.71 94.51 120.62 137.46 171.71 151.52 171.71 151.52 101.91 138.62 101.91 138.62 152.9"/><polygon class="cls-25" points="229.56 105.59 229.56 101.91 215.6 101.91 191.75 130.31 175.36 130.31 175.36 101.91 162.47 101.91 162.47 171.71 175.36 171.71 175.36 143.3 191.75 143.3 215.6 171.71 229.66 171.71 229.66 168.03 203.38 136.81 229.56 105.59"/><rect class="cls-11" x="411.2" y="116.8" width="40.11" height="16.07"/><rect class="cls-11" x="334.52" y="116.8" width="40.11" height="16.07"/><rect class="cls-11" x="740.2" y="116.8" width="40.11" height="16.07"/><path class="cls-4" d="M303.45,102.03c-2.34-1.41-4.96-2.13-7.77-2.13h-42.85c-2.81,0-5.43.72-7.77,2.13-2.31,1.39-4.19,3.27-5.58,5.58-1.41,2.34-2.13,4.96-2.13,7.77v14.35c0,2.88.72,5.53,2.13,7.87,1.39,2.31,3.27,4.19,5.58,5.57,2.34,1.41,4.96,2.13,7.77,2.13h41.43v11.51h-40.11v-3.91c0-1.1-.9-2-2-2h-12.8c-1.1,0-2,.9-2,2v5.33c0,2.81.72,5.43,2.13,7.77,1.39,2.31,3.27,4.19,5.58,5.57,2.34,1.41,4.96,2.13,7.77,2.13h42.85c2.81,0,5.43-.72,7.77-2.13,2.31-1.39,4.18-3.27,5.58-5.58,1.41-2.34,2.13-4.96,2.13-7.77v-14.35c0-2.88-.72-5.52-2.13-7.87-1.39-2.31-3.27-4.18-5.58-5.58-2.34-1.41-4.96-2.13-7.77-2.13h-41.53v-11.51h40.11v3.91c0,1.1.9,2,2,2h12.89c1.1,0,2-.9,2-2v-5.33c0-2.81-.72-5.43-2.13-7.77-1.39-2.31-3.27-4.18-5.58-5.58ZM309.16,120.71h-12.89v-4.75c0-.32-.11-.6-.34-.82-.23-.23-.5-.34-.82-.34h-41.79c-.32,0-.6.11-.82.34-.23.23-.34.5-.34.82v13.28c0,.32.11.58.34.78.23.19.5.29.82.29h42.37c2.46,0,4.7.61,6.74,1.84,2.04,1.23,3.67,2.86,4.9,4.9,1.23,2.04,1.84,4.31,1.84,6.83v14.35c0,2.46-.61,4.7-1.84,6.74-1.23,2.04-2.86,3.67-4.9,4.9-2.04,1.23-4.28,1.84-6.74,1.84h-42.85c-2.46,0-4.7-.61-6.74-1.84-2.04-1.23-3.67-2.86-4.9-4.9-1.23-2.04-1.84-4.28-1.84-6.74v-5.33h12.8v4.75c0,.32.11.6.34.82.23.23.5.34.82.34h41.79c.32,0,.6-.11.82-.34.23-.23.34-.5.34-.82v-13.28c0-.32-.11-.58-.34-.78-.23-.19-.5-.29-.82-.29h-42.27c-2.46,0-4.7-.61-6.74-1.84-2.04-1.23-3.67-2.86-4.9-4.9-1.23-2.04-1.84-4.31-1.84-6.83v-14.35c0-2.46.61-4.7,1.84-6.74,1.23-2.04,2.86-3.67,4.9-4.9,2.04-1.23,4.28-1.84,6.74-1.84h42.85c2.46,0,4.7.61,6.74,1.84,2.04,1.23,3.67,2.86,4.9,4.9,1.23,2.04,1.84,4.28,1.84,6.74v5.33Z"/><path class="cls-4" d="M375.37,114.8h-41.69c-.32,0-.6.11-.82.34-.23.23-.34.5-.34.82v17.84c0,.32.11.58.34.78.23.19.5.29.82.29h41.69c.32,0,.61-.1.87-.29.26-.19.39-.45.39-.78v-17.84c0-.32-.13-.6-.39-.82-.26-.23-.55-.34-.87-.34ZM374.63,132.87h-40.11v-16.07h40.11v16.07Z"/><path class="cls-4" d="M383.76,102.12c-2.37-1.41-5-2.12-7.81-2.12h-56.23c-1.1,0-2,.9-2,2v69.71c0,1.1.9,2,2,2h12.8c1.1,0,2-.9,2-2v-21.85l41.43-.09c2.8,0,5.42-.69,7.79-2.06,2.36-1.36,4.26-3.25,5.66-5.61,1.41-2.37,2.12-5,2.12-7.81v-18.81c0-2.81-.72-5.43-2.13-7.77-1.39-2.31-3.29-4.19-5.64-5.58ZM389.53,134.29c0,2.46-.61,4.72-1.84,6.79-1.23,2.07-2.88,3.7-4.94,4.9-2.07,1.2-4.33,1.79-6.79,1.79l-43.43.1v23.85h-12.8v-69.71h56.23c2.46,0,4.72.62,6.79,1.84,2.07,1.23,3.72,2.86,4.94,4.9,1.23,2.04,1.84,4.28,1.84,6.74v18.81Z"/><path class="cls-4" d="M452.06,114.8h-41.69c-.32,0-.6.11-.82.34-.23.23-.34.5-.34.82v17.84c0,.32.11.58.34.78.23.19.5.29.82.29h41.69c.32,0,.61-.1.87-.29.26-.19.39-.45.39-.78v-17.84c0-.32-.13-.6-.39-.82-.26-.23-.55-.34-.87-.34ZM451.32,132.87h-40.11v-16.07h40.11v16.07Z"/><path class="cls-4" d="M460.44,102.12c-2.37-1.41-5-2.12-7.81-2.12h-56.23c-1.1,0-2,.9-2,2v69.71c0,1.1.9,2,2,2h12.8c1.1,0,2-.9,2-2v-21.85l41.43-.09c2.8,0,5.42-.69,7.79-2.06,2.36-1.36,4.26-3.25,5.66-5.61,1.41-2.37,2.12-5,2.12-7.81v-18.81c0-2.81-.72-5.43-2.13-7.77-1.39-2.31-3.29-4.19-5.64-5.58ZM466.21,134.29c0,2.46-.61,4.72-1.84,6.79-1.23,2.07-2.88,3.7-4.94,4.9-2.07,1.2-4.33,1.79-6.79,1.79l-43.43.1v23.85h-12.8v-69.71h56.23c2.46,0,4.72.62,6.79,1.84,2.07,1.23,3.72,2.86,4.94,4.9,1.23,2.04,1.84,4.28,1.84,6.74v18.81Z"/><path class="cls-4" d="M454.84,151.34c-.38-.46-.95-.73-1.55-.73h-16.77c-.77,0-1.47.44-1.81,1.14-.33.7-.23,1.52.25,2.12l15.54,19.1c.38.47.95.74,1.55.74h13.96c1.1,0,2-.9,2-2v-3.59c0-.46-.16-.91-.45-1.27l-12.73-15.51ZM466.02,171.71h-13.96l-15.54-19.1h16.77l12.73,15.51v3.59Z"/><path class="cls-4" d="M781.06,114.8h-41.69c-.32,0-.6.11-.82.34-.23.23-.34.5-.34.82v17.84c0,.32.11.58.34.78.23.19.5.29.82.29h41.69c.32,0,.61-.1.87-.29.26-.19.39-.45.39-.78v-17.84c0-.32-.13-.6-.39-.82-.26-.23-.55-.34-.87-.34ZM780.32,132.87h-40.11v-16.07h40.11v16.07Z"/><path class="cls-4" d="M783.84,151.34c-.38-.46-.95-.73-1.55-.73h-16.77c-.77,0-1.47.44-1.81,1.14-.33.7-.23,1.52.25,2.12l15.54,19.1c.38.47.95.74,1.55.74h13.96c1.1,0,2-.9,2-2v-3.59c0-.46-.16-.91-.45-1.27l-12.73-15.51ZM795.02,171.71h-13.96l-15.54-19.1h16.77l12.73,15.51v3.59Z"/><path class="cls-4" d="M789.45,102.12c-2.38-1.41-5-2.12-7.81-2.12h-56.23c-1.1,0-2,.9-2,2v69.71c0,1.1.9,2,2,2h12.8c1.1,0,2-.9,2-2v-21.85l41.43-.09c2.8,0,5.42-.69,7.79-2.06,2.36-1.36,4.26-3.25,5.66-5.61,1.41-2.37,2.12-5,2.12-7.81v-18.81c0-2.81-.72-5.43-2.13-7.77-1.39-2.31-3.29-4.19-5.64-5.58ZM795.21,134.29c0,2.46-.61,4.72-1.84,6.79-1.23,2.07-2.88,3.7-4.94,4.9-2.07,1.2-4.33,1.79-6.79,1.79l-43.43.1v23.85h-12.8v-69.71h56.23c2.46,0,4.72.62,6.79,1.84,2.07,1.23,3.72,2.86,4.94,4.9,1.23,2.04,1.84,4.28,1.84,6.74v18.81Z"/><path class="cls-4" d="M487.73,99.91h-12.7c-1.1,0-2,.9-2,2v69.8c0,1.1.9,2,2,2h12.7c1.1,0,2-.9,2-2v-69.8c0-1.1-.9-2-2-2ZM487.73,171.71h-12.7v-69.8h12.7v69.8Z"/><path class="cls-4" d="M566.94,99.91h-12.89c-1.1,0-2,.9-2,2v45.51l-39.32-46.79c-.38-.45-.94-.71-1.53-.71h-14.06c-1.1,0-2,.9-2,2v69.8c0,1.1.9,2,2,2h12.8c1.1,0,2-.9,2-2v-45.6l39.42,46.89c.38.45.94.71,1.53.71h14.06c1.1,0,2-.9,2-2v-69.8c0-1.1-.9-2-2-2ZM566.94,171.71h-14.06l-42.95-51.09v51.09h-12.8v-69.8h14.06l42.85,51v-51h12.89v69.8Z"/><path class="cls-4" d="M644.11,99.91h-69.8c-1.1,0-2,.9-2,2v12.89c0,1.1.9,2,2,2h26.5v54.91c0,1.1.9,2,2,2h12.89c1.1,0,2-.9,2-2v-54.91h26.41c1.1,0,2-.9,2-2v-12.89c0-1.1-.9-2-2-2ZM644.11,114.8h-28.41v56.91h-12.89v-56.91h-28.5v-12.89h69.8v12.89Z"/><path class="cls-4" d="M715.85,99.91h-64.28c-1.1,0-2,.9-2,2v69.8c0,1.1.9,2,2,2h64.28c1.1,0,2-.9,2-2v-12.89c0-1.1-.9-2-2-2h-49.38v-11.51h39.3c1.1,0,2-.9,2-2v-12.99c0-1.1-.9-2-2-2h-39.3v-11.51h49.38c1.1,0,2-.9,2-2v-12.89c0-1.1-.9-2-2-2ZM715.85,114.8h-51.38v15.51h41.3v12.99h-41.3v15.51h51.38v12.89h-64.28v-69.8h64.28v12.89Z"/><path class="cls-4" d="M862.25,122.71h12.89c1.1,0,2-.9,2-2v-5.33c0-2.81-.72-5.43-2.13-7.77-1.39-2.31-3.27-4.18-5.58-5.58-2.34-1.41-4.96-2.13-7.77-2.13h-42.85c-2.81,0-5.43.72-7.77,2.13-2.31,1.39-4.19,3.27-5.58,5.58-1.41,2.34-2.13,4.96-2.13,7.77v14.35c0,2.88.72,5.53,2.13,7.87,1.39,2.31,3.27,4.18,5.58,5.58,2.34,1.41,4.96,2.13,7.77,2.13h41.43v11.51h-40.11v-3.91c0-1.1-.9-2-2-2h-12.8c-1.1,0-2,.9-2,2v5.33c0,2.81.72,5.43,2.13,7.77,1.39,2.31,3.27,4.18,5.58,5.58,2.34,1.41,4.96,2.13,7.77,2.13h42.85c2.82,0,5.43-.72,7.77-2.13,2.3-1.39,4.18-3.26,5.58-5.58,1.41-2.34,2.13-4.96,2.13-7.77v-14.35c0-2.88-.72-5.52-2.13-7.87-1.39-2.31-3.27-4.18-5.58-5.58-2.34-1.41-4.96-2.13-7.77-2.13h-41.53v-11.51h40.11v3.91c0,1.1.9,2,2,2ZM819.3,114.8c-.32,0-.6.11-.82.34s-.34.5-.34.82v13.28c0,.32.11.58.34.78.23.19.5.29.82.29h42.37c2.46,0,4.7.61,6.74,1.84,2.04,1.23,3.67,2.86,4.9,4.9,1.23,2.04,1.84,4.31,1.84,6.83v14.35c0,2.46-.62,4.7-1.84,6.74-1.23,2.04-2.86,3.67-4.9,4.9-2.04,1.23-4.28,1.84-6.74,1.84h-42.85c-2.46,0-4.7-.61-6.74-1.84-2.04-1.23-3.67-2.86-4.9-4.9-1.23-2.04-1.84-4.28-1.84-6.74v-5.33h12.8v4.75c0,.32.11.6.34.82.23.23.5.34.82.34h41.79c.32,0,.6-.11.82-.34.23-.23.34-.5.34-.82v-13.28c0-.32-.11-.58-.34-.78s-.5-.29-.82-.29h-42.27c-2.46,0-4.7-.61-6.74-1.84-2.04-1.23-3.67-2.86-4.9-4.9-1.23-2.04-1.84-4.31-1.84-6.83v-14.35c0-2.46.61-4.7,1.84-6.74,1.23-2.04,2.86-3.67,4.9-4.9,2.04-1.23,4.28-1.84,6.74-1.84h42.85c2.46,0,4.7.61,6.74,1.84,2.04,1.23,3.67,2.86,4.9,4.9,1.23,2.04,1.84,4.28,1.84,6.74v5.33h-12.89v-4.75c0-.32-.11-.6-.34-.82-.23-.23-.5-.34-.82-.34h-41.79Z"/><path class="cls-5" d="M307.31,108.64c1.23,2.04,1.84,4.28,1.84,6.74v5.33h-12.89v-4.75c0-.32-.11-.6-.34-.82-.23-.23-.5-.34-.82-.34h-41.79c-.32,0-.6.11-.82.34-.23.23-.34.5-.34.82v13.28c0,.32.11.58.34.78.23.19.5.29.82.29h42.37c2.46,0,4.7.61,6.74,1.84,2.04,1.23,3.67,2.86,4.9,4.9,1.23,2.04,1.84,4.31,1.84,6.83v14.35c0,2.46-.61,4.7-1.84,6.74-1.23,2.04-2.86,3.67-4.9,4.9-2.04,1.23-4.28,1.84-6.74,1.84h-42.85c-2.46,0-4.7-.61-6.74-1.84-2.04-1.23-3.67-2.86-4.9-4.9-1.23-2.04-1.84-4.28-1.84-6.74v-5.33h12.8v4.75c0,.32.11.6.34.82.23.23.5.34.82.34h41.79c.32,0,.6-.11.82-.34.23-.23.34-.5.34-.82v-13.28c0-.32-.11-.58-.34-.78-.23-.19-.5-.29-.82-.29h-42.27c-2.46,0-4.7-.61-6.74-1.84-2.04-1.23-3.67-2.86-4.9-4.9-1.23-2.04-1.84-4.31-1.84-6.83v-14.35c0-2.46.61-4.7,1.84-6.74,1.23-2.04,2.86-3.67,4.9-4.9,2.04-1.23,4.28-1.84,6.74-1.84h42.85c2.46,0,4.7.61,6.74,1.84,2.04,1.23,3.67,2.86,4.9,4.9ZM387.68,108.74c1.23,2.04,1.84,4.28,1.84,6.74v18.81c0,2.46-.61,4.72-1.84,6.79-1.23,2.07-2.88,3.7-4.94,4.9-2.07,1.2-4.33,1.79-6.79,1.79l-43.43.1v23.85h-12.8v-69.71h56.23c2.46,0,4.72.62,6.79,1.84,2.07,1.23,3.72,2.86,4.94,4.9ZM376.63,115.96c0-.32-.13-.6-.39-.82-.26-.23-.55-.34-.87-.34h-41.69c-.32,0-.6.11-.82.34-.23.23-.34.5-.34.82v17.84c0,.32.11.58.34.78.23.19.5.29.82.29h41.69c.32,0,.61-.1.87-.29.26-.19.39-.45.39-.78v-17.84ZM436.52,152.61l15.54,19.1h13.96v-3.59l-12.73-15.51h-16.77ZM464.37,108.74c1.23,2.04,1.84,4.28,1.84,6.74v18.81c0,2.46-.61,4.72-1.84,6.79-1.23,2.07-2.88,3.7-4.94,4.9-2.07,1.2-4.33,1.79-6.79,1.79l-43.43.1v23.85h-12.8v-69.71h56.23c2.46,0,4.72.62,6.79,1.84,2.07,1.23,3.72,2.86,4.94,4.9ZM453.32,115.96c0-.32-.13-.6-.39-.82-.26-.23-.55-.34-.87-.34h-41.69c-.32,0-.6.11-.82.34-.23.23-.34.5-.34.82v17.84c0,.32.11.58.34.78.23.19.5.29.82.29h41.69c.32,0,.61-.1.87-.29.26-.19.39-.45.39-.78v-17.84ZM765.52,152.61l15.54,19.1h13.96v-3.59l-12.73-15.51h-16.77ZM793.37,108.74c1.23,2.04,1.84,4.28,1.84,6.74v18.81c0,2.46-.61,4.72-1.84,6.79-1.23,2.07-2.88,3.7-4.94,4.9-2.07,1.2-4.33,1.79-6.79,1.79l-43.43.1v23.85h-12.8v-69.71h56.23c2.46,0,4.72.62,6.79,1.84,2.07,1.23,3.72,2.86,4.94,4.9ZM782.32,115.96c0-.32-.13-.6-.39-.82-.26-.23-.55-.34-.87-.34h-41.69c-.32,0-.6.11-.82.34-.23.23-.34.5-.34.82v17.84c0,.32.11.58.34.78.23.19.5.29.82.29h41.69c.32,0,.61-.1.87-.29.26-.19.39-.45.39-.78v-17.84ZM475.03,171.71h12.7v-69.8h-12.7v69.8ZM554.05,152.9l-42.85-51h-14.06v69.8h12.8v-51.09l42.95,51.09h14.06v-69.8h-12.89v51ZM574.31,114.8h28.5v56.91h12.89v-56.91h28.41v-12.89h-69.8v12.89ZM651.57,171.71h64.28v-12.89h-51.38v-15.51h41.3v-12.99h-41.3v-15.51h51.38v-12.89h-64.28v69.8ZM861.91,115.14c.23.23.34.5.34.82v4.75h12.89v-5.33c0-2.46-.62-4.7-1.84-6.74-1.23-2.04-2.86-3.67-4.9-4.9-2.04-1.23-4.28-1.84-6.74-1.84h-42.85c-2.46,0-4.7.61-6.74,1.84-2.04,1.23-3.67,2.86-4.9,4.9-1.23,2.04-1.84,4.28-1.84,6.74v14.35c0,2.52.61,4.8,1.84,6.83,1.23,2.04,2.86,3.67,4.9,4.9,2.04,1.23,4.28,1.84,6.74,1.84h42.27c.32,0,.6.1.82.29s.34.45.34.78v13.28c0,.32-.11.6-.34.82-.23.23-.5.34-.82.34h-41.79c-.32,0-.6-.11-.82-.34-.23-.23-.34-.5-.34-.82v-4.75h-12.8v5.33c0,2.46.61,4.7,1.84,6.74,1.23,2.04,2.86,3.67,4.9,4.9,2.04,1.23,4.28,1.84,6.74,1.84h42.85c2.46,0,4.7-.61,6.74-1.84,2.04-1.23,3.67-2.86,4.9-4.9,1.23-2.04,1.84-4.28,1.84-6.74v-14.35c0-2.52-.62-4.8-1.84-6.83-1.23-2.04-2.86-3.67-4.9-4.9-2.04-1.23-4.28-1.84-6.74-1.84h-42.37c-.32,0-.6-.1-.82-.29-.23-.19-.34-.45-.34-.78v-13.28c0-.32.11-.6.34-.82s.5-.34.82-.34h41.79c.32,0,.6.11.82.34Z"/></svg>